<mxfile host="app.diagrams.net" modified="2024-04-17T15:32:00.790Z" agent="Mozilla/5.0 (X11; Linux x86_64) AppleWebKit/537.36 (KHTML, like Gecko) Chrome/123.0.0.0 Safari/537.36" etag="kiLexcO3RLPb630We58e" scale="1" border="0" version="24.2.5" type="device" pages="2">
  <diagram name="Overview" id="gkpl-cZyxJdx864BNdEz">
    <mxGraphModel dx="1368" dy="1859" grid="1" gridSize="10" guides="1" tooltips="1" connect="1" arrows="1" fold="1" page="1" pageScale="1" pageWidth="850" pageHeight="1100" math="0" shadow="0">
      <root>
        <mxCell id="0" />
        <mxCell id="1" parent="0" />
        <mxCell id="xSOHgqHdsWcsR3LC2w7b-1" value="" style="group" parent="1" vertex="1" connectable="0">
          <mxGeometry x="560" y="-620" width="236" height="170" as="geometry" />
        </mxCell>
        <mxCell id="rjM2-1fIK8ZMN1zlR11N-1" style="rounded=0;orthogonalLoop=1;jettySize=auto;html=1;entryX=0;entryY=0;entryDx=0;entryDy=0;exitX=0.998;exitY=0.059;exitDx=0;exitDy=0;exitPerimeter=0;" parent="xSOHgqHdsWcsR3LC2w7b-1" source="rjM2-1fIK8ZMN1zlR11N-2" target="rjM2-1fIK8ZMN1zlR11N-9" edge="1">
          <mxGeometry relative="1" as="geometry" />
        </mxCell>
        <mxCell id="rjM2-1fIK8ZMN1zlR11N-2" value="&lt;b&gt;UART&lt;br&gt;Register&amp;nbsp;&lt;br&gt;File&lt;/b&gt;" style="rounded=1;whiteSpace=wrap;html=1;fillColor=#ffe6cc;strokeColor=#d79b00;" parent="xSOHgqHdsWcsR3LC2w7b-1" vertex="1">
          <mxGeometry width="62.51655629139073" height="170" as="geometry" />
        </mxCell>
        <mxCell id="rjM2-1fIK8ZMN1zlR11N-3" value="UART_BRR" style="rounded=0;whiteSpace=wrap;html=1;fillColor=#f5f5f5;fontColor=#333333;strokeColor=#666666;" parent="xSOHgqHdsWcsR3LC2w7b-1" vertex="1">
          <mxGeometry x="109.40397350993378" y="61.523809523809526" width="93.7748344370861" height="24.285714285714285" as="geometry" />
        </mxCell>
        <mxCell id="rjM2-1fIK8ZMN1zlR11N-4" value="UART_TXBUFF" style="rounded=0;whiteSpace=wrap;html=1;fillColor=#f5f5f5;fontColor=#333333;strokeColor=#666666;" parent="xSOHgqHdsWcsR3LC2w7b-1" vertex="1">
          <mxGeometry x="109.40397350993378" y="85.80952380952381" width="93.7748344370861" height="24.285714285714285" as="geometry" />
        </mxCell>
        <mxCell id="rjM2-1fIK8ZMN1zlR11N-5" style="rounded=0;orthogonalLoop=1;jettySize=auto;html=1;entryX=0;entryY=1;entryDx=0;entryDy=0;exitX=1.005;exitY=0.937;exitDx=0;exitDy=0;exitPerimeter=0;" parent="xSOHgqHdsWcsR3LC2w7b-1" source="rjM2-1fIK8ZMN1zlR11N-2" target="rjM2-1fIK8ZMN1zlR11N-8" edge="1">
          <mxGeometry relative="1" as="geometry">
            <mxPoint x="62.51655629139073" y="58.285714285714285" as="sourcePoint" />
            <mxPoint x="109.40397350993378" y="105.23809523809524" as="targetPoint" />
          </mxGeometry>
        </mxCell>
        <mxCell id="rjM2-1fIK8ZMN1zlR11N-6" value="0x00" style="text;html=1;align=center;verticalAlign=middle;resizable=0;points=[];autosize=1;strokeColor=none;fillColor=none;" parent="xSOHgqHdsWcsR3LC2w7b-1" vertex="1">
          <mxGeometry x="196.9271523178808" y="25.095238095238095" width="50" height="30" as="geometry" />
        </mxCell>
        <mxCell id="rjM2-1fIK8ZMN1zlR11N-7" value="0x01" style="text;html=1;align=center;verticalAlign=middle;resizable=0;points=[];autosize=1;strokeColor=none;fillColor=none;" parent="xSOHgqHdsWcsR3LC2w7b-1" vertex="1">
          <mxGeometry x="196.9271523178808" y="50.19047619047619" width="50" height="30" as="geometry" />
        </mxCell>
        <mxCell id="rjM2-1fIK8ZMN1zlR11N-8" value="UART_RXBUFF" style="rounded=0;whiteSpace=wrap;html=1;fillColor=#f5f5f5;fontColor=#333333;strokeColor=#666666;" parent="xSOHgqHdsWcsR3LC2w7b-1" vertex="1">
          <mxGeometry x="109.40397350993378" y="110.0952380952381" width="93.7748344370861" height="24.285714285714285" as="geometry" />
        </mxCell>
        <mxCell id="rjM2-1fIK8ZMN1zlR11N-9" value="UART_CR" style="rounded=0;whiteSpace=wrap;html=1;fillColor=#f5f5f5;fontColor=#333333;strokeColor=#666666;" parent="xSOHgqHdsWcsR3LC2w7b-1" vertex="1">
          <mxGeometry x="109.40397350993378" y="37.23809523809524" width="93.7748344370861" height="24.285714285714285" as="geometry" />
        </mxCell>
        <mxCell id="rjM2-1fIK8ZMN1zlR11N-10" value="0x02" style="text;html=1;align=center;verticalAlign=middle;resizable=0;points=[];autosize=1;strokeColor=none;fillColor=none;" parent="xSOHgqHdsWcsR3LC2w7b-1" vertex="1">
          <mxGeometry x="196.9271523178808" y="74.47619047619048" width="50" height="30" as="geometry" />
        </mxCell>
        <mxCell id="rjM2-1fIK8ZMN1zlR11N-11" value="0x03" style="text;html=1;align=center;verticalAlign=middle;resizable=0;points=[];autosize=1;strokeColor=none;fillColor=none;" parent="xSOHgqHdsWcsR3LC2w7b-1" vertex="1">
          <mxGeometry x="196.9271523178808" y="98.76190476190476" width="50" height="30" as="geometry" />
        </mxCell>
        <mxCell id="xSOHgqHdsWcsR3LC2w7b-2" value="" style="group" parent="1" vertex="1" connectable="0">
          <mxGeometry x="30" y="-670" width="510" height="240" as="geometry" />
        </mxCell>
        <mxCell id="e_Kzi8fy0i7ZlZmQTEZX-1" value="" style="rounded=0;whiteSpace=wrap;html=1;fillColor=#dae8fc;strokeColor=#6c8ebf;" parent="xSOHgqHdsWcsR3LC2w7b-2" vertex="1">
          <mxGeometry x="138.42857142857142" width="306" height="240.00000000000003" as="geometry" />
        </mxCell>
        <mxCell id="e_Kzi8fy0i7ZlZmQTEZX-2" style="edgeStyle=orthogonalEdgeStyle;rounded=0;orthogonalLoop=1;jettySize=auto;html=1;entryX=0;entryY=0.5;entryDx=0;entryDy=0;startArrow=classic;startFill=1;" parent="xSOHgqHdsWcsR3LC2w7b-2" source="e_Kzi8fy0i7ZlZmQTEZX-3" target="e_Kzi8fy0i7ZlZmQTEZX-10" edge="1">
          <mxGeometry relative="1" as="geometry" />
        </mxCell>
        <mxCell id="e_Kzi8fy0i7ZlZmQTEZX-3" value="&lt;div&gt;&lt;b&gt;Custom&lt;br&gt;Interconnect&lt;/b&gt;&lt;/div&gt;" style="rounded=0;whiteSpace=wrap;html=1;fillColor=#fff2cc;strokeColor=#d6b656;" parent="xSOHgqHdsWcsR3LC2w7b-2" vertex="1">
          <mxGeometry x="65.57142857142857" y="13.830508474576272" width="58.285714285714285" height="211.52542372881356" as="geometry" />
        </mxCell>
        <mxCell id="e_Kzi8fy0i7ZlZmQTEZX-4" style="edgeStyle=orthogonalEdgeStyle;rounded=0;orthogonalLoop=1;jettySize=auto;html=1;exitX=1;exitY=0.25;exitDx=0;exitDy=0;startArrow=classic;startFill=1;endArrow=none;endFill=0;entryX=-0.046;entryY=0.526;entryDx=0;entryDy=0;entryPerimeter=0;" parent="xSOHgqHdsWcsR3LC2w7b-2" source="e_Kzi8fy0i7ZlZmQTEZX-12" target="e_Kzi8fy0i7ZlZmQTEZX-8" edge="1">
          <mxGeometry relative="1" as="geometry">
            <mxPoint x="466.28571428571416" y="76.99525423728804" as="targetPoint" />
            <mxPoint x="475.31999999999994" y="38.237288135593225" as="sourcePoint" />
          </mxGeometry>
        </mxCell>
        <mxCell id="e_Kzi8fy0i7ZlZmQTEZX-5" style="edgeStyle=orthogonalEdgeStyle;rounded=0;orthogonalLoop=1;jettySize=auto;html=1;entryX=0;entryY=0.5;entryDx=0;entryDy=0;" parent="xSOHgqHdsWcsR3LC2w7b-2" source="e_Kzi8fy0i7ZlZmQTEZX-6" target="e_Kzi8fy0i7ZlZmQTEZX-3" edge="1">
          <mxGeometry relative="1" as="geometry" />
        </mxCell>
        <mxCell id="e_Kzi8fy0i7ZlZmQTEZX-6" value="&lt;div&gt;&lt;b&gt;VeSPA&lt;br&gt;Master&lt;/b&gt;&lt;/div&gt;" style="text;html=1;align=center;verticalAlign=middle;whiteSpace=wrap;rounded=0;fillColor=#dae8fc;strokeColor=#6c8ebf;" parent="xSOHgqHdsWcsR3LC2w7b-2" vertex="1">
          <mxGeometry y="70.77966101694916" width="43.714285714285715" height="97.6271186440678" as="geometry" />
        </mxCell>
        <mxCell id="e_Kzi8fy0i7ZlZmQTEZX-7" value="&lt;b&gt;Tx_bit&lt;/b&gt;" style="text;html=1;align=center;verticalAlign=middle;whiteSpace=wrap;rounded=0;" parent="xSOHgqHdsWcsR3LC2w7b-2" vertex="1">
          <mxGeometry x="466.2857142857143" y="152.135593220339" width="43.714285714285715" height="24.40677966101695" as="geometry" />
        </mxCell>
        <mxCell id="e_Kzi8fy0i7ZlZmQTEZX-8" value="&lt;b&gt;Rx_bit&lt;/b&gt;" style="text;html=1;align=center;verticalAlign=middle;whiteSpace=wrap;rounded=0;" parent="xSOHgqHdsWcsR3LC2w7b-2" vertex="1">
          <mxGeometry x="466.2857142857143" y="63.864406779661024" width="43.714285714285715" height="24.40677966101695" as="geometry" />
        </mxCell>
        <mxCell id="e_Kzi8fy0i7ZlZmQTEZX-9" style="edgeStyle=orthogonalEdgeStyle;rounded=0;orthogonalLoop=1;jettySize=auto;html=1;entryX=0;entryY=0.5;entryDx=0;entryDy=0;startArrow=classic;startFill=1;" parent="xSOHgqHdsWcsR3LC2w7b-2" source="e_Kzi8fy0i7ZlZmQTEZX-10" target="e_Kzi8fy0i7ZlZmQTEZX-12" edge="1">
          <mxGeometry relative="1" as="geometry" />
        </mxCell>
        <mxCell id="e_Kzi8fy0i7ZlZmQTEZX-10" value="&lt;div&gt;&lt;b&gt;Uart&lt;br&gt;Register&lt;br&gt;File&lt;/b&gt;&lt;/div&gt;" style="rounded=0;whiteSpace=wrap;html=1;fillColor=#fff2cc;strokeColor=#d6b656;" parent="xSOHgqHdsWcsR3LC2w7b-2" vertex="1">
          <mxGeometry x="160.28571428571428" y="13.830508474576272" width="58.285714285714285" height="211.52542372881356" as="geometry" />
        </mxCell>
        <mxCell id="e_Kzi8fy0i7ZlZmQTEZX-11" style="edgeStyle=orthogonalEdgeStyle;rounded=0;orthogonalLoop=1;jettySize=auto;html=1;exitX=1;exitY=0.75;exitDx=0;exitDy=0;entryX=-0.029;entryY=0.406;entryDx=0;entryDy=0;entryPerimeter=0;" parent="xSOHgqHdsWcsR3LC2w7b-2" source="e_Kzi8fy0i7ZlZmQTEZX-12" target="e_Kzi8fy0i7ZlZmQTEZX-7" edge="1">
          <mxGeometry relative="1" as="geometry" />
        </mxCell>
        <mxCell id="e_Kzi8fy0i7ZlZmQTEZX-12" value="" style="rounded=1;whiteSpace=wrap;html=1;fillColor=#ffe6cc;strokeColor=#d79b00;" parent="xSOHgqHdsWcsR3LC2w7b-2" vertex="1">
          <mxGeometry x="256.7485714285714" y="34.16949152542373" width="174.85714285714286" height="170.84745762711864" as="geometry" />
        </mxCell>
        <mxCell id="e_Kzi8fy0i7ZlZmQTEZX-13" value="" style="rounded=1;whiteSpace=wrap;html=1;fillColor=#f8cecc;strokeColor=#b85450;" parent="xSOHgqHdsWcsR3LC2w7b-2" vertex="1">
          <mxGeometry x="269.4985714285714" y="58.57627118644068" width="145.7142857142857" height="130.16949152542372" as="geometry" />
        </mxCell>
        <mxCell id="e_Kzi8fy0i7ZlZmQTEZX-14" value="&lt;b&gt;&lt;font style=&quot;font-size: 13px;&quot;&gt;Uart Peripheral&lt;/font&gt;&lt;/b&gt;" style="text;html=1;align=center;verticalAlign=middle;resizable=0;points=[];autosize=1;strokeColor=none;fillColor=none;" parent="xSOHgqHdsWcsR3LC2w7b-2" vertex="1">
          <mxGeometry x="298.64142857142855" y="34.16949152542373" width="120" height="30" as="geometry" />
        </mxCell>
        <mxCell id="e_Kzi8fy0i7ZlZmQTEZX-15" style="edgeStyle=orthogonalEdgeStyle;rounded=0;orthogonalLoop=1;jettySize=auto;html=1;exitX=0.5;exitY=1;exitDx=0;exitDy=0;entryX=0.5;entryY=0;entryDx=0;entryDy=0;startArrow=classic;startFill=1;endArrow=none;endFill=0;" parent="xSOHgqHdsWcsR3LC2w7b-2" source="e_Kzi8fy0i7ZlZmQTEZX-16" target="e_Kzi8fy0i7ZlZmQTEZX-19" edge="1">
          <mxGeometry relative="1" as="geometry" />
        </mxCell>
        <mxCell id="e_Kzi8fy0i7ZlZmQTEZX-16" value="&lt;div&gt;RX&amp;nbsp;&lt;span style=&quot;background-color: initial;&quot;&gt;Block&lt;/span&gt;&lt;/div&gt;" style="rounded=0;whiteSpace=wrap;html=1;" parent="xSOHgqHdsWcsR3LC2w7b-2" vertex="1">
          <mxGeometry x="298.64142857142855" y="63.864406779661024" width="87.42857142857143" height="23.186440677966104" as="geometry" />
        </mxCell>
        <mxCell id="e_Kzi8fy0i7ZlZmQTEZX-17" value="&lt;div&gt;TX&amp;nbsp;&lt;span style=&quot;background-color: initial;&quot;&gt;Block&lt;/span&gt;&lt;/div&gt;" style="rounded=0;whiteSpace=wrap;html=1;" parent="xSOHgqHdsWcsR3LC2w7b-2" vertex="1">
          <mxGeometry x="298.64142857142855" y="152.135593220339" width="87.42857142857143" height="24.40677966101695" as="geometry" />
        </mxCell>
        <mxCell id="e_Kzi8fy0i7ZlZmQTEZX-18" style="edgeStyle=orthogonalEdgeStyle;rounded=0;orthogonalLoop=1;jettySize=auto;html=1;exitX=0.5;exitY=1;exitDx=0;exitDy=0;entryX=0.5;entryY=0;entryDx=0;entryDy=0;" parent="xSOHgqHdsWcsR3LC2w7b-2" source="e_Kzi8fy0i7ZlZmQTEZX-19" target="e_Kzi8fy0i7ZlZmQTEZX-17" edge="1">
          <mxGeometry relative="1" as="geometry" />
        </mxCell>
        <mxCell id="e_Kzi8fy0i7ZlZmQTEZX-19" value="&lt;div&gt;Baud Rate&lt;/div&gt;&lt;div&gt;&amp;nbsp;Generator&lt;/div&gt;" style="rounded=0;whiteSpace=wrap;html=1;" parent="xSOHgqHdsWcsR3LC2w7b-2" vertex="1">
          <mxGeometry x="298.64142857142855" y="103.3220338983051" width="87.42857142857143" height="32.54237288135593" as="geometry" />
        </mxCell>
      </root>
    </mxGraphModel>
  </diagram>
  <diagram id="oFogQ3WEr0X-SoZFizWM" name="Registers">
    <mxGraphModel dx="1440" dy="1968" grid="1" gridSize="10" guides="1" tooltips="1" connect="1" arrows="1" fold="1" page="1" pageScale="1" pageWidth="1654" pageHeight="1169" math="0" shadow="0">
      <root>
        <mxCell id="0" />
        <mxCell id="1" parent="0" />
        <mxCell id="mQUvQM8aUeaj5Nr_OHTg-1" value="&lt;div style=&quot;forced-color-adjust: none; color: rgb(0, 0, 0); font-family: Helvetica; font-size: 12px; font-style: normal; font-variant-ligatures: normal; font-variant-caps: normal; letter-spacing: normal; orphans: 2; text-align: left; text-indent: 0px; text-transform: none; widows: 2; word-spacing: 0px; -webkit-text-stroke-width: 0px; white-space: nowrap; background-color: rgb(251, 251, 251); text-decoration-thickness: initial; text-decoration-style: initial; text-decoration-color: initial;&quot;&gt;&lt;div style=&quot;forced-color-adjust: none;&quot;&gt;&lt;/div&gt;&lt;/div&gt;" style="text;whiteSpace=wrap;html=1;" vertex="1" parent="1">
          <mxGeometry x="420" y="-495" width="560" height="180" as="geometry" />
        </mxCell>
        <mxCell id="bpD1tKoErot-Qz8JOO8t-1" value="RFU" style="rounded=0;whiteSpace=wrap;html=1;" vertex="1" parent="1">
          <mxGeometry x="190" y="456" width="60" height="30" as="geometry" />
        </mxCell>
        <mxCell id="bpD1tKoErot-Qz8JOO8t-2" value="&lt;span style=&quot;color: rgb(0, 0, 0); font-family: Helvetica; font-size: 12px; font-style: normal; font-variant-ligatures: normal; font-variant-caps: normal; font-weight: 400; letter-spacing: normal; orphans: 2; text-align: center; text-indent: 0px; text-transform: none; widows: 2; word-spacing: 0px; -webkit-text-stroke-width: 0px; background-color: rgb(251, 251, 251); text-decoration-thickness: initial; text-decoration-style: initial; text-decoration-color: initial; float: none; display: inline !important;&quot;&gt;-&lt;/span&gt;" style="rounded=0;whiteSpace=wrap;html=1;" vertex="1" parent="1">
          <mxGeometry x="190" y="486" width="60" height="30" as="geometry" />
        </mxCell>
        <mxCell id="bpD1tKoErot-Qz8JOO8t-3" value="31" style="rounded=0;whiteSpace=wrap;html=1;fillColor=#f5f5f5;fontColor=#333333;strokeColor=#666666;" vertex="1" parent="1">
          <mxGeometry x="190" y="436" width="60" height="20" as="geometry" />
        </mxCell>
        <mxCell id="bpD1tKoErot-Qz8JOO8t-4" value="RFU" style="rounded=0;whiteSpace=wrap;html=1;" vertex="1" parent="1">
          <mxGeometry x="250" y="456" width="60" height="30" as="geometry" />
        </mxCell>
        <mxCell id="bpD1tKoErot-Qz8JOO8t-5" value="-" style="rounded=0;whiteSpace=wrap;html=1;" vertex="1" parent="1">
          <mxGeometry x="250" y="486" width="60" height="30" as="geometry" />
        </mxCell>
        <mxCell id="bpD1tKoErot-Qz8JOO8t-6" value="30" style="rounded=0;whiteSpace=wrap;html=1;fillColor=#f5f5f5;fontColor=#333333;strokeColor=#666666;" vertex="1" parent="1">
          <mxGeometry x="250" y="436" width="60" height="20" as="geometry" />
        </mxCell>
        <mxCell id="bpD1tKoErot-Qz8JOO8t-7" value="RFU" style="rounded=0;whiteSpace=wrap;html=1;" vertex="1" parent="1">
          <mxGeometry x="310" y="456" width="60" height="30" as="geometry" />
        </mxCell>
        <mxCell id="bpD1tKoErot-Qz8JOO8t-8" value="-" style="rounded=0;whiteSpace=wrap;html=1;" vertex="1" parent="1">
          <mxGeometry x="310" y="486" width="60" height="30" as="geometry" />
        </mxCell>
        <mxCell id="bpD1tKoErot-Qz8JOO8t-9" value="29" style="rounded=0;whiteSpace=wrap;html=1;fillColor=#f5f5f5;fontColor=#333333;strokeColor=#666666;" vertex="1" parent="1">
          <mxGeometry x="310" y="436" width="60" height="20" as="geometry" />
        </mxCell>
        <mxCell id="bpD1tKoErot-Qz8JOO8t-10" value="RFU" style="rounded=0;whiteSpace=wrap;html=1;" vertex="1" parent="1">
          <mxGeometry x="370" y="456" width="60" height="30" as="geometry" />
        </mxCell>
        <mxCell id="bpD1tKoErot-Qz8JOO8t-11" value="-" style="rounded=0;whiteSpace=wrap;html=1;" vertex="1" parent="1">
          <mxGeometry x="370" y="486" width="60" height="30" as="geometry" />
        </mxCell>
        <mxCell id="bpD1tKoErot-Qz8JOO8t-12" value="28" style="rounded=0;whiteSpace=wrap;html=1;fillColor=#f5f5f5;fontColor=#333333;strokeColor=#666666;" vertex="1" parent="1">
          <mxGeometry x="370" y="436" width="60" height="20" as="geometry" />
        </mxCell>
        <mxCell id="bpD1tKoErot-Qz8JOO8t-13" value="RFU" style="rounded=0;whiteSpace=wrap;html=1;" vertex="1" parent="1">
          <mxGeometry x="430" y="456" width="60" height="30" as="geometry" />
        </mxCell>
        <mxCell id="bpD1tKoErot-Qz8JOO8t-14" value="-" style="rounded=0;whiteSpace=wrap;html=1;" vertex="1" parent="1">
          <mxGeometry x="430" y="486" width="60" height="30" as="geometry" />
        </mxCell>
        <mxCell id="bpD1tKoErot-Qz8JOO8t-15" value="27" style="rounded=0;whiteSpace=wrap;html=1;fillColor=#f5f5f5;fontColor=#333333;strokeColor=#666666;" vertex="1" parent="1">
          <mxGeometry x="430" y="436" width="60" height="20" as="geometry" />
        </mxCell>
        <mxCell id="bpD1tKoErot-Qz8JOO8t-16" value="RFU" style="rounded=0;whiteSpace=wrap;html=1;" vertex="1" parent="1">
          <mxGeometry x="490" y="456" width="60" height="30" as="geometry" />
        </mxCell>
        <mxCell id="bpD1tKoErot-Qz8JOO8t-17" value="&lt;span style=&quot;color: rgb(0, 0, 0); font-family: Helvetica; font-size: 12px; font-style: normal; font-variant-ligatures: normal; font-variant-caps: normal; font-weight: 400; letter-spacing: normal; orphans: 2; text-align: center; text-indent: 0px; text-transform: none; widows: 2; word-spacing: 0px; -webkit-text-stroke-width: 0px; background-color: rgb(251, 251, 251); text-decoration-thickness: initial; text-decoration-style: initial; text-decoration-color: initial; float: none; display: inline !important;&quot;&gt;-&lt;/span&gt;" style="rounded=0;whiteSpace=wrap;html=1;" vertex="1" parent="1">
          <mxGeometry x="490" y="486" width="60" height="30" as="geometry" />
        </mxCell>
        <mxCell id="bpD1tKoErot-Qz8JOO8t-18" value="26" style="rounded=0;whiteSpace=wrap;html=1;fillColor=#f5f5f5;fontColor=#333333;strokeColor=#666666;" vertex="1" parent="1">
          <mxGeometry x="490" y="436" width="60" height="20" as="geometry" />
        </mxCell>
        <mxCell id="bpD1tKoErot-Qz8JOO8t-19" value="&lt;span style=&quot;color: rgb(0, 0, 0); font-family: Helvetica; font-size: 12px; font-style: normal; font-variant-ligatures: normal; font-variant-caps: normal; font-weight: 400; letter-spacing: normal; orphans: 2; text-align: center; text-indent: 0px; text-transform: none; widows: 2; word-spacing: 0px; -webkit-text-stroke-width: 0px; background-color: rgb(251, 251, 251); text-decoration-thickness: initial; text-decoration-style: initial; text-decoration-color: initial; float: none; display: inline !important;&quot;&gt;RFU&lt;/span&gt;" style="rounded=0;whiteSpace=wrap;html=1;" vertex="1" parent="1">
          <mxGeometry x="550" y="456" width="60" height="30" as="geometry" />
        </mxCell>
        <mxCell id="bpD1tKoErot-Qz8JOO8t-20" value="&lt;span style=&quot;color: rgb(0, 0, 0); font-family: Helvetica; font-size: 12px; font-style: normal; font-variant-ligatures: normal; font-variant-caps: normal; font-weight: 400; letter-spacing: normal; orphans: 2; text-align: center; text-indent: 0px; text-transform: none; widows: 2; word-spacing: 0px; -webkit-text-stroke-width: 0px; background-color: rgb(251, 251, 251); text-decoration-thickness: initial; text-decoration-style: initial; text-decoration-color: initial; float: none; display: inline !important;&quot;&gt;-&lt;/span&gt;" style="rounded=0;whiteSpace=wrap;html=1;" vertex="1" parent="1">
          <mxGeometry x="550" y="486" width="60" height="30" as="geometry" />
        </mxCell>
        <mxCell id="bpD1tKoErot-Qz8JOO8t-21" value="25" style="rounded=0;whiteSpace=wrap;html=1;fillColor=#f5f5f5;fontColor=#333333;strokeColor=#666666;" vertex="1" parent="1">
          <mxGeometry x="550" y="436" width="60" height="20" as="geometry" />
        </mxCell>
        <mxCell id="bpD1tKoErot-Qz8JOO8t-22" value="RFU" style="rounded=0;whiteSpace=wrap;html=1;" vertex="1" parent="1">
          <mxGeometry x="610" y="456" width="60" height="30" as="geometry" />
        </mxCell>
        <mxCell id="bpD1tKoErot-Qz8JOO8t-23" value="&lt;span style=&quot;color: rgb(0, 0, 0); font-family: Helvetica; font-size: 12px; font-style: normal; font-variant-ligatures: normal; font-variant-caps: normal; font-weight: 400; letter-spacing: normal; orphans: 2; text-align: center; text-indent: 0px; text-transform: none; widows: 2; word-spacing: 0px; -webkit-text-stroke-width: 0px; background-color: rgb(251, 251, 251); text-decoration-thickness: initial; text-decoration-style: initial; text-decoration-color: initial; float: none; display: inline !important;&quot;&gt;-&lt;/span&gt;" style="rounded=0;whiteSpace=wrap;html=1;" vertex="1" parent="1">
          <mxGeometry x="610" y="486" width="60" height="30" as="geometry" />
        </mxCell>
        <mxCell id="bpD1tKoErot-Qz8JOO8t-24" value="24" style="rounded=0;whiteSpace=wrap;html=1;fillColor=#f5f5f5;fontColor=#333333;strokeColor=#666666;" vertex="1" parent="1">
          <mxGeometry x="610" y="436" width="60" height="20" as="geometry" />
        </mxCell>
        <mxCell id="bpD1tKoErot-Qz8JOO8t-25" value="RFU" style="rounded=0;whiteSpace=wrap;html=1;" vertex="1" parent="1">
          <mxGeometry x="670" y="456" width="60" height="30" as="geometry" />
        </mxCell>
        <mxCell id="bpD1tKoErot-Qz8JOO8t-26" value="&lt;span style=&quot;color: rgb(0, 0, 0); font-family: Helvetica; font-size: 12px; font-style: normal; font-variant-ligatures: normal; font-variant-caps: normal; font-weight: 400; letter-spacing: normal; orphans: 2; text-align: center; text-indent: 0px; text-transform: none; widows: 2; word-spacing: 0px; -webkit-text-stroke-width: 0px; background-color: rgb(251, 251, 251); text-decoration-thickness: initial; text-decoration-style: initial; text-decoration-color: initial; float: none; display: inline !important;&quot;&gt;-&lt;/span&gt;" style="rounded=0;whiteSpace=wrap;html=1;" vertex="1" parent="1">
          <mxGeometry x="670" y="486" width="60" height="30" as="geometry" />
        </mxCell>
        <mxCell id="bpD1tKoErot-Qz8JOO8t-27" value="23" style="rounded=0;whiteSpace=wrap;html=1;fillColor=#f5f5f5;fontColor=#333333;strokeColor=#666666;" vertex="1" parent="1">
          <mxGeometry x="670" y="436" width="60" height="20" as="geometry" />
        </mxCell>
        <mxCell id="bpD1tKoErot-Qz8JOO8t-28" value="RFU" style="rounded=0;whiteSpace=wrap;html=1;" vertex="1" parent="1">
          <mxGeometry x="730" y="456" width="60" height="30" as="geometry" />
        </mxCell>
        <mxCell id="bpD1tKoErot-Qz8JOO8t-29" value="&lt;span style=&quot;color: rgb(0, 0, 0); font-family: Helvetica; font-size: 12px; font-style: normal; font-variant-ligatures: normal; font-variant-caps: normal; font-weight: 400; letter-spacing: normal; orphans: 2; text-align: center; text-indent: 0px; text-transform: none; widows: 2; word-spacing: 0px; -webkit-text-stroke-width: 0px; background-color: rgb(251, 251, 251); text-decoration-thickness: initial; text-decoration-style: initial; text-decoration-color: initial; float: none; display: inline !important;&quot;&gt;-&lt;/span&gt;" style="rounded=0;whiteSpace=wrap;html=1;" vertex="1" parent="1">
          <mxGeometry x="730" y="486" width="60" height="30" as="geometry" />
        </mxCell>
        <mxCell id="bpD1tKoErot-Qz8JOO8t-30" value="22" style="rounded=0;whiteSpace=wrap;html=1;fillColor=#f5f5f5;fontColor=#333333;strokeColor=#666666;" vertex="1" parent="1">
          <mxGeometry x="730" y="436" width="60" height="20" as="geometry" />
        </mxCell>
        <mxCell id="bpD1tKoErot-Qz8JOO8t-31" value="RFU" style="rounded=0;whiteSpace=wrap;html=1;" vertex="1" parent="1">
          <mxGeometry x="790" y="456" width="60" height="30" as="geometry" />
        </mxCell>
        <mxCell id="bpD1tKoErot-Qz8JOO8t-32" value="&lt;span style=&quot;color: rgb(0, 0, 0); font-family: Helvetica; font-size: 12px; font-style: normal; font-variant-ligatures: normal; font-variant-caps: normal; font-weight: 400; letter-spacing: normal; orphans: 2; text-align: center; text-indent: 0px; text-transform: none; widows: 2; word-spacing: 0px; -webkit-text-stroke-width: 0px; background-color: rgb(251, 251, 251); text-decoration-thickness: initial; text-decoration-style: initial; text-decoration-color: initial; float: none; display: inline !important;&quot;&gt;-&lt;/span&gt;" style="rounded=0;whiteSpace=wrap;html=1;" vertex="1" parent="1">
          <mxGeometry x="790" y="486" width="60" height="30" as="geometry" />
        </mxCell>
        <mxCell id="bpD1tKoErot-Qz8JOO8t-33" value="21" style="rounded=0;whiteSpace=wrap;html=1;fillColor=#f5f5f5;fontColor=#333333;strokeColor=#666666;" vertex="1" parent="1">
          <mxGeometry x="790" y="436" width="60" height="20" as="geometry" />
        </mxCell>
        <mxCell id="bpD1tKoErot-Qz8JOO8t-34" value="RFU" style="rounded=0;whiteSpace=wrap;html=1;" vertex="1" parent="1">
          <mxGeometry x="850" y="456" width="60" height="30" as="geometry" />
        </mxCell>
        <mxCell id="bpD1tKoErot-Qz8JOO8t-35" value="&lt;span style=&quot;color: rgb(0, 0, 0); font-family: Helvetica; font-size: 12px; font-style: normal; font-variant-ligatures: normal; font-variant-caps: normal; font-weight: 400; letter-spacing: normal; orphans: 2; text-align: center; text-indent: 0px; text-transform: none; widows: 2; word-spacing: 0px; -webkit-text-stroke-width: 0px; background-color: rgb(251, 251, 251); text-decoration-thickness: initial; text-decoration-style: initial; text-decoration-color: initial; float: none; display: inline !important;&quot;&gt;-&lt;/span&gt;" style="rounded=0;whiteSpace=wrap;html=1;" vertex="1" parent="1">
          <mxGeometry x="850" y="486" width="60" height="30" as="geometry" />
        </mxCell>
        <mxCell id="bpD1tKoErot-Qz8JOO8t-36" value="20" style="rounded=0;whiteSpace=wrap;html=1;fillColor=#f5f5f5;fontColor=#333333;strokeColor=#666666;" vertex="1" parent="1">
          <mxGeometry x="850" y="436" width="60" height="20" as="geometry" />
        </mxCell>
        <mxCell id="bpD1tKoErot-Qz8JOO8t-37" value="RFU" style="rounded=0;whiteSpace=wrap;html=1;" vertex="1" parent="1">
          <mxGeometry x="910" y="456" width="60" height="30" as="geometry" />
        </mxCell>
        <mxCell id="bpD1tKoErot-Qz8JOO8t-38" value="&lt;span style=&quot;color: rgb(0, 0, 0); font-family: Helvetica; font-size: 12px; font-style: normal; font-variant-ligatures: normal; font-variant-caps: normal; font-weight: 400; letter-spacing: normal; orphans: 2; text-align: center; text-indent: 0px; text-transform: none; widows: 2; word-spacing: 0px; -webkit-text-stroke-width: 0px; background-color: rgb(251, 251, 251); text-decoration-thickness: initial; text-decoration-style: initial; text-decoration-color: initial; float: none; display: inline !important;&quot;&gt;-&lt;/span&gt;" style="rounded=0;whiteSpace=wrap;html=1;" vertex="1" parent="1">
          <mxGeometry x="910" y="486" width="60" height="30" as="geometry" />
        </mxCell>
        <mxCell id="bpD1tKoErot-Qz8JOO8t-39" value="19" style="rounded=0;whiteSpace=wrap;html=1;fillColor=#f5f5f5;fontColor=#333333;strokeColor=#666666;" vertex="1" parent="1">
          <mxGeometry x="910" y="436" width="60" height="20" as="geometry" />
        </mxCell>
        <mxCell id="bpD1tKoErot-Qz8JOO8t-40" value="RFU" style="rounded=0;whiteSpace=wrap;html=1;" vertex="1" parent="1">
          <mxGeometry x="970" y="456" width="60" height="30" as="geometry" />
        </mxCell>
        <mxCell id="bpD1tKoErot-Qz8JOO8t-41" value="&lt;span style=&quot;color: rgb(0, 0, 0); font-family: Helvetica; font-size: 12px; font-style: normal; font-variant-ligatures: normal; font-variant-caps: normal; font-weight: 400; letter-spacing: normal; orphans: 2; text-align: center; text-indent: 0px; text-transform: none; widows: 2; word-spacing: 0px; -webkit-text-stroke-width: 0px; background-color: rgb(251, 251, 251); text-decoration-thickness: initial; text-decoration-style: initial; text-decoration-color: initial; float: none; display: inline !important;&quot;&gt;-&lt;/span&gt;" style="rounded=0;whiteSpace=wrap;html=1;" vertex="1" parent="1">
          <mxGeometry x="970" y="486" width="60" height="30" as="geometry" />
        </mxCell>
        <mxCell id="bpD1tKoErot-Qz8JOO8t-42" value="18" style="rounded=0;whiteSpace=wrap;html=1;fillColor=#f5f5f5;fontColor=#333333;strokeColor=#666666;" vertex="1" parent="1">
          <mxGeometry x="970" y="436" width="60" height="20" as="geometry" />
        </mxCell>
        <mxCell id="bpD1tKoErot-Qz8JOO8t-43" value="RFU" style="rounded=0;whiteSpace=wrap;html=1;" vertex="1" parent="1">
          <mxGeometry x="1030" y="456" width="60" height="30" as="geometry" />
        </mxCell>
        <mxCell id="bpD1tKoErot-Qz8JOO8t-44" value="&lt;span style=&quot;color: rgb(0, 0, 0); font-family: Helvetica; font-size: 12px; font-style: normal; font-variant-ligatures: normal; font-variant-caps: normal; font-weight: 400; letter-spacing: normal; orphans: 2; text-align: center; text-indent: 0px; text-transform: none; widows: 2; word-spacing: 0px; -webkit-text-stroke-width: 0px; background-color: rgb(251, 251, 251); text-decoration-thickness: initial; text-decoration-style: initial; text-decoration-color: initial; float: none; display: inline !important;&quot;&gt;-&lt;/span&gt;" style="rounded=0;whiteSpace=wrap;html=1;" vertex="1" parent="1">
          <mxGeometry x="1030" y="486" width="60" height="30" as="geometry" />
        </mxCell>
        <mxCell id="bpD1tKoErot-Qz8JOO8t-45" value="17" style="rounded=0;whiteSpace=wrap;html=1;fillColor=#f5f5f5;fontColor=#333333;strokeColor=#666666;" vertex="1" parent="1">
          <mxGeometry x="1030" y="436" width="60" height="20" as="geometry" />
        </mxCell>
        <mxCell id="bpD1tKoErot-Qz8JOO8t-46" value="RFU" style="rounded=0;whiteSpace=wrap;html=1;" vertex="1" parent="1">
          <mxGeometry x="1090" y="456" width="60" height="30" as="geometry" />
        </mxCell>
        <mxCell id="bpD1tKoErot-Qz8JOO8t-47" value="&lt;span style=&quot;color: rgb(0, 0, 0); font-family: Helvetica; font-size: 12px; font-style: normal; font-variant-ligatures: normal; font-variant-caps: normal; font-weight: 400; letter-spacing: normal; orphans: 2; text-align: center; text-indent: 0px; text-transform: none; widows: 2; word-spacing: 0px; -webkit-text-stroke-width: 0px; background-color: rgb(251, 251, 251); text-decoration-thickness: initial; text-decoration-style: initial; text-decoration-color: initial; float: none; display: inline !important;&quot;&gt;-&lt;/span&gt;" style="rounded=0;whiteSpace=wrap;html=1;" vertex="1" parent="1">
          <mxGeometry x="1090" y="486" width="60" height="30" as="geometry" />
        </mxCell>
        <mxCell id="bpD1tKoErot-Qz8JOO8t-48" value="16" style="rounded=0;whiteSpace=wrap;html=1;fillColor=#f5f5f5;fontColor=#333333;strokeColor=#666666;" vertex="1" parent="1">
          <mxGeometry x="1090" y="436" width="60" height="20" as="geometry" />
        </mxCell>
        <mxCell id="bpD1tKoErot-Qz8JOO8t-49" value="RFU" style="rounded=0;whiteSpace=wrap;html=1;" vertex="1" parent="1">
          <mxGeometry x="190" y="550" width="60" height="30" as="geometry" />
        </mxCell>
        <mxCell id="bpD1tKoErot-Qz8JOO8t-50" value="-" style="rounded=0;whiteSpace=wrap;html=1;" vertex="1" parent="1">
          <mxGeometry x="190" y="580" width="60" height="30" as="geometry" />
        </mxCell>
        <mxCell id="bpD1tKoErot-Qz8JOO8t-51" value="15" style="rounded=0;whiteSpace=wrap;html=1;fillColor=#f5f5f5;fontColor=#333333;strokeColor=#666666;" vertex="1" parent="1">
          <mxGeometry x="190" y="530" width="60" height="20" as="geometry" />
        </mxCell>
        <mxCell id="bpD1tKoErot-Qz8JOO8t-52" value="RFU" style="rounded=0;whiteSpace=wrap;html=1;" vertex="1" parent="1">
          <mxGeometry x="250" y="550" width="60" height="30" as="geometry" />
        </mxCell>
        <mxCell id="bpD1tKoErot-Qz8JOO8t-53" value="-" style="rounded=0;whiteSpace=wrap;html=1;" vertex="1" parent="1">
          <mxGeometry x="250" y="580" width="60" height="30" as="geometry" />
        </mxCell>
        <mxCell id="bpD1tKoErot-Qz8JOO8t-54" value="14" style="rounded=0;whiteSpace=wrap;html=1;fillColor=#f5f5f5;fontColor=#333333;strokeColor=#666666;" vertex="1" parent="1">
          <mxGeometry x="250" y="530" width="60" height="20" as="geometry" />
        </mxCell>
        <mxCell id="bpD1tKoErot-Qz8JOO8t-55" value="RFU" style="rounded=0;whiteSpace=wrap;html=1;" vertex="1" parent="1">
          <mxGeometry x="310" y="550" width="60" height="30" as="geometry" />
        </mxCell>
        <mxCell id="bpD1tKoErot-Qz8JOO8t-56" value="-" style="rounded=0;whiteSpace=wrap;html=1;" vertex="1" parent="1">
          <mxGeometry x="310" y="580" width="60" height="30" as="geometry" />
        </mxCell>
        <mxCell id="bpD1tKoErot-Qz8JOO8t-57" value="13" style="rounded=0;whiteSpace=wrap;html=1;fillColor=#f5f5f5;fontColor=#333333;strokeColor=#666666;" vertex="1" parent="1">
          <mxGeometry x="310" y="530" width="60" height="20" as="geometry" />
        </mxCell>
        <mxCell id="bpD1tKoErot-Qz8JOO8t-58" value="RFU" style="rounded=0;whiteSpace=wrap;html=1;" vertex="1" parent="1">
          <mxGeometry x="370" y="550" width="60" height="30" as="geometry" />
        </mxCell>
        <mxCell id="bpD1tKoErot-Qz8JOO8t-59" value="-" style="rounded=0;whiteSpace=wrap;html=1;" vertex="1" parent="1">
          <mxGeometry x="370" y="580" width="60" height="30" as="geometry" />
        </mxCell>
        <mxCell id="bpD1tKoErot-Qz8JOO8t-60" value="12" style="rounded=0;whiteSpace=wrap;html=1;fillColor=#f5f5f5;fontColor=#333333;strokeColor=#666666;" vertex="1" parent="1">
          <mxGeometry x="370" y="530" width="60" height="20" as="geometry" />
        </mxCell>
        <mxCell id="bpD1tKoErot-Qz8JOO8t-61" value="RFU" style="rounded=0;whiteSpace=wrap;html=1;" vertex="1" parent="1">
          <mxGeometry x="430" y="550" width="60" height="30" as="geometry" />
        </mxCell>
        <mxCell id="bpD1tKoErot-Qz8JOO8t-62" value="-" style="rounded=0;whiteSpace=wrap;html=1;" vertex="1" parent="1">
          <mxGeometry x="430" y="580" width="60" height="30" as="geometry" />
        </mxCell>
        <mxCell id="bpD1tKoErot-Qz8JOO8t-63" value="11" style="rounded=0;whiteSpace=wrap;html=1;fillColor=#f5f5f5;fontColor=#333333;strokeColor=#666666;" vertex="1" parent="1">
          <mxGeometry x="430" y="530" width="60" height="20" as="geometry" />
        </mxCell>
        <mxCell id="bpD1tKoErot-Qz8JOO8t-64" value="RFU" style="rounded=0;whiteSpace=wrap;html=1;" vertex="1" parent="1">
          <mxGeometry x="490" y="550" width="60" height="30" as="geometry" />
        </mxCell>
        <mxCell id="bpD1tKoErot-Qz8JOO8t-65" value="-" style="rounded=0;whiteSpace=wrap;html=1;" vertex="1" parent="1">
          <mxGeometry x="490" y="580" width="60" height="30" as="geometry" />
        </mxCell>
        <mxCell id="bpD1tKoErot-Qz8JOO8t-66" value="10" style="rounded=0;whiteSpace=wrap;html=1;fillColor=#f5f5f5;fontColor=#333333;strokeColor=#666666;" vertex="1" parent="1">
          <mxGeometry x="490" y="530" width="60" height="20" as="geometry" />
        </mxCell>
        <mxCell id="bpD1tKoErot-Qz8JOO8t-67" value="RFU" style="rounded=0;whiteSpace=wrap;html=1;" vertex="1" parent="1">
          <mxGeometry x="550" y="550" width="60" height="30" as="geometry" />
        </mxCell>
        <mxCell id="bpD1tKoErot-Qz8JOO8t-68" value="-" style="rounded=0;whiteSpace=wrap;html=1;" vertex="1" parent="1">
          <mxGeometry x="550" y="580" width="60" height="30" as="geometry" />
        </mxCell>
        <mxCell id="bpD1tKoErot-Qz8JOO8t-69" value="9" style="rounded=0;whiteSpace=wrap;html=1;fillColor=#f5f5f5;fontColor=#333333;strokeColor=#666666;" vertex="1" parent="1">
          <mxGeometry x="550" y="530" width="60" height="20" as="geometry" />
        </mxCell>
        <mxCell id="bpD1tKoErot-Qz8JOO8t-70" value="RFU" style="rounded=0;whiteSpace=wrap;html=1;" vertex="1" parent="1">
          <mxGeometry x="610" y="550" width="60" height="30" as="geometry" />
        </mxCell>
        <mxCell id="bpD1tKoErot-Qz8JOO8t-71" value="-" style="rounded=0;whiteSpace=wrap;html=1;" vertex="1" parent="1">
          <mxGeometry x="610" y="580" width="60" height="30" as="geometry" />
        </mxCell>
        <mxCell id="bpD1tKoErot-Qz8JOO8t-72" value="8" style="rounded=0;whiteSpace=wrap;html=1;fillColor=#f5f5f5;fontColor=#333333;strokeColor=#666666;" vertex="1" parent="1">
          <mxGeometry x="610" y="530" width="60" height="20" as="geometry" />
        </mxCell>
        <mxCell id="bpD1tKoErot-Qz8JOO8t-73" value="7" style="rounded=0;whiteSpace=wrap;html=1;fillColor=#f5f5f5;fontColor=#333333;strokeColor=#666666;" vertex="1" parent="1">
          <mxGeometry x="670" y="530" width="60" height="20" as="geometry" />
        </mxCell>
        <mxCell id="bpD1tKoErot-Qz8JOO8t-74" value="6" style="rounded=0;whiteSpace=wrap;html=1;fillColor=#f5f5f5;fontColor=#333333;strokeColor=#666666;" vertex="1" parent="1">
          <mxGeometry x="730" y="530" width="60" height="20" as="geometry" />
        </mxCell>
        <mxCell id="bpD1tKoErot-Qz8JOO8t-75" value="5" style="rounded=0;whiteSpace=wrap;html=1;fillColor=#f5f5f5;fontColor=#333333;strokeColor=#666666;" vertex="1" parent="1">
          <mxGeometry x="790" y="530" width="60" height="20" as="geometry" />
        </mxCell>
        <mxCell id="bpD1tKoErot-Qz8JOO8t-76" value="4" style="rounded=0;whiteSpace=wrap;html=1;fillColor=#f5f5f5;fontColor=#333333;strokeColor=#666666;" vertex="1" parent="1">
          <mxGeometry x="850" y="530" width="60" height="20" as="geometry" />
        </mxCell>
        <mxCell id="bpD1tKoErot-Qz8JOO8t-77" value="3" style="rounded=0;whiteSpace=wrap;html=1;fillColor=#f5f5f5;fontColor=#333333;strokeColor=#666666;" vertex="1" parent="1">
          <mxGeometry x="910" y="530" width="60" height="20" as="geometry" />
        </mxCell>
        <mxCell id="bpD1tKoErot-Qz8JOO8t-78" value="2" style="rounded=0;whiteSpace=wrap;html=1;fillColor=#f5f5f5;fontColor=#333333;strokeColor=#666666;" vertex="1" parent="1">
          <mxGeometry x="970" y="530" width="60" height="20" as="geometry" />
        </mxCell>
        <mxCell id="bpD1tKoErot-Qz8JOO8t-79" value="1" style="rounded=0;whiteSpace=wrap;html=1;fillColor=#f5f5f5;fontColor=#333333;strokeColor=#666666;" vertex="1" parent="1">
          <mxGeometry x="1030" y="530" width="60" height="20" as="geometry" />
        </mxCell>
        <mxCell id="bpD1tKoErot-Qz8JOO8t-80" value="&lt;b&gt;TX_BUFF&lt;/b&gt;" style="rounded=0;whiteSpace=wrap;html=1;" vertex="1" parent="1">
          <mxGeometry x="670" y="550" width="480" height="30" as="geometry" />
        </mxCell>
        <mxCell id="bpD1tKoErot-Qz8JOO8t-81" value="&lt;b&gt;RW&lt;/b&gt;" style="rounded=0;whiteSpace=wrap;html=1;" vertex="1" parent="1">
          <mxGeometry x="670" y="580" width="480" height="30" as="geometry" />
        </mxCell>
        <mxCell id="bpD1tKoErot-Qz8JOO8t-82" value="0" style="rounded=0;whiteSpace=wrap;html=1;fillColor=#f5f5f5;fontColor=#333333;strokeColor=#666666;" vertex="1" parent="1">
          <mxGeometry x="1090" y="530" width="60" height="20" as="geometry" />
        </mxCell>
        <mxCell id="bpD1tKoErot-Qz8JOO8t-83" value="&lt;b&gt;UART_TXBUFF&amp;nbsp;: 0x04&lt;/b&gt;" style="text;html=1;align=left;verticalAlign=middle;resizable=0;points=[];autosize=1;strokeColor=none;fillColor=none;" vertex="1" parent="1">
          <mxGeometry x="190" y="407" width="150" height="30" as="geometry" />
        </mxCell>
        <mxCell id="bpD1tKoErot-Qz8JOO8t-84" value="&lt;b&gt;Bit 0-7 : TX_BUFF&lt;/b&gt;&lt;br&gt;&lt;span style=&quot;font-weight: bold; white-space: pre;&quot;&gt;&#x9;&lt;/span&gt;&lt;span lang=&quot;en&quot; class=&quot;HwtZe&quot;&gt;&lt;span class=&quot;jCAhz ChMk0b&quot;&gt;&lt;span class=&quot;ryNqvb&quot;&gt;Data to be transmitted by the UART peripheral&lt;/span&gt;&lt;/span&gt;&lt;/span&gt;&lt;span class=&quot;ZSCsVd&quot;&gt;&lt;span class=&quot;azoIfb&quot;&gt;&lt;/span&gt;&lt;/span&gt;&lt;div&gt;&lt;div&gt;&lt;div&gt;&lt;div&gt;&lt;br&gt;&lt;/div&gt;&lt;/div&gt;&lt;/div&gt;&lt;/div&gt;&lt;div&gt;&lt;span style=&quot;white-space: pre;&quot;&gt;&lt;/span&gt;All other values are &lt;b&gt;RFU&lt;/b&gt;&lt;span style=&quot;white-space: pre;&quot;&gt;&lt;/span&gt;&lt;/div&gt;" style="text;html=1;align=left;verticalAlign=middle;resizable=0;points=[];autosize=1;strokeColor=none;fillColor=none;rotation=0;" vertex="1" parent="1">
          <mxGeometry x="190" y="612" width="300" height="70" as="geometry" />
        </mxCell>
        <mxCell id="bpD1tKoErot-Qz8JOO8t-85" value="RFU" style="rounded=0;whiteSpace=wrap;html=1;" vertex="1" parent="1">
          <mxGeometry x="210" y="46" width="60" height="30" as="geometry" />
        </mxCell>
        <mxCell id="bpD1tKoErot-Qz8JOO8t-86" value="&lt;span style=&quot;color: rgb(0, 0, 0); font-family: Helvetica; font-size: 12px; font-style: normal; font-variant-ligatures: normal; font-variant-caps: normal; font-weight: 400; letter-spacing: normal; orphans: 2; text-align: center; text-indent: 0px; text-transform: none; widows: 2; word-spacing: 0px; -webkit-text-stroke-width: 0px; background-color: rgb(251, 251, 251); text-decoration-thickness: initial; text-decoration-style: initial; text-decoration-color: initial; float: none; display: inline !important;&quot;&gt;-&lt;/span&gt;" style="rounded=0;whiteSpace=wrap;html=1;" vertex="1" parent="1">
          <mxGeometry x="210" y="76" width="60" height="30" as="geometry" />
        </mxCell>
        <mxCell id="bpD1tKoErot-Qz8JOO8t-87" value="31" style="rounded=0;whiteSpace=wrap;html=1;fillColor=#f5f5f5;fontColor=#333333;strokeColor=#666666;" vertex="1" parent="1">
          <mxGeometry x="210" y="26" width="60" height="20" as="geometry" />
        </mxCell>
        <mxCell id="bpD1tKoErot-Qz8JOO8t-88" value="RFU" style="rounded=0;whiteSpace=wrap;html=1;" vertex="1" parent="1">
          <mxGeometry x="270" y="46" width="60" height="30" as="geometry" />
        </mxCell>
        <mxCell id="bpD1tKoErot-Qz8JOO8t-89" value="-" style="rounded=0;whiteSpace=wrap;html=1;" vertex="1" parent="1">
          <mxGeometry x="270" y="76" width="60" height="30" as="geometry" />
        </mxCell>
        <mxCell id="bpD1tKoErot-Qz8JOO8t-90" value="30" style="rounded=0;whiteSpace=wrap;html=1;fillColor=#f5f5f5;fontColor=#333333;strokeColor=#666666;" vertex="1" parent="1">
          <mxGeometry x="270" y="26" width="60" height="20" as="geometry" />
        </mxCell>
        <mxCell id="bpD1tKoErot-Qz8JOO8t-91" value="RFU" style="rounded=0;whiteSpace=wrap;html=1;" vertex="1" parent="1">
          <mxGeometry x="330" y="46" width="60" height="30" as="geometry" />
        </mxCell>
        <mxCell id="bpD1tKoErot-Qz8JOO8t-92" value="-" style="rounded=0;whiteSpace=wrap;html=1;" vertex="1" parent="1">
          <mxGeometry x="330" y="76" width="60" height="30" as="geometry" />
        </mxCell>
        <mxCell id="bpD1tKoErot-Qz8JOO8t-93" value="29" style="rounded=0;whiteSpace=wrap;html=1;fillColor=#f5f5f5;fontColor=#333333;strokeColor=#666666;" vertex="1" parent="1">
          <mxGeometry x="330" y="26" width="60" height="20" as="geometry" />
        </mxCell>
        <mxCell id="bpD1tKoErot-Qz8JOO8t-94" value="RFU" style="rounded=0;whiteSpace=wrap;html=1;" vertex="1" parent="1">
          <mxGeometry x="390" y="46" width="60" height="30" as="geometry" />
        </mxCell>
        <mxCell id="bpD1tKoErot-Qz8JOO8t-95" value="-" style="rounded=0;whiteSpace=wrap;html=1;" vertex="1" parent="1">
          <mxGeometry x="390" y="76" width="60" height="30" as="geometry" />
        </mxCell>
        <mxCell id="bpD1tKoErot-Qz8JOO8t-96" value="28" style="rounded=0;whiteSpace=wrap;html=1;fillColor=#f5f5f5;fontColor=#333333;strokeColor=#666666;" vertex="1" parent="1">
          <mxGeometry x="390" y="26" width="60" height="20" as="geometry" />
        </mxCell>
        <mxCell id="bpD1tKoErot-Qz8JOO8t-97" value="RFU" style="rounded=0;whiteSpace=wrap;html=1;" vertex="1" parent="1">
          <mxGeometry x="450" y="46" width="60" height="30" as="geometry" />
        </mxCell>
        <mxCell id="bpD1tKoErot-Qz8JOO8t-98" value="-" style="rounded=0;whiteSpace=wrap;html=1;" vertex="1" parent="1">
          <mxGeometry x="450" y="76" width="60" height="30" as="geometry" />
        </mxCell>
        <mxCell id="bpD1tKoErot-Qz8JOO8t-99" value="27" style="rounded=0;whiteSpace=wrap;html=1;fillColor=#f5f5f5;fontColor=#333333;strokeColor=#666666;" vertex="1" parent="1">
          <mxGeometry x="450" y="26" width="60" height="20" as="geometry" />
        </mxCell>
        <mxCell id="bpD1tKoErot-Qz8JOO8t-100" value="RFU" style="rounded=0;whiteSpace=wrap;html=1;" vertex="1" parent="1">
          <mxGeometry x="510" y="46" width="60" height="30" as="geometry" />
        </mxCell>
        <mxCell id="bpD1tKoErot-Qz8JOO8t-101" value="&lt;span style=&quot;color: rgb(0, 0, 0); font-family: Helvetica; font-size: 12px; font-style: normal; font-variant-ligatures: normal; font-variant-caps: normal; font-weight: 400; letter-spacing: normal; orphans: 2; text-align: center; text-indent: 0px; text-transform: none; widows: 2; word-spacing: 0px; -webkit-text-stroke-width: 0px; background-color: rgb(251, 251, 251); text-decoration-thickness: initial; text-decoration-style: initial; text-decoration-color: initial; float: none; display: inline !important;&quot;&gt;-&lt;/span&gt;" style="rounded=0;whiteSpace=wrap;html=1;" vertex="1" parent="1">
          <mxGeometry x="510" y="76" width="60" height="30" as="geometry" />
        </mxCell>
        <mxCell id="bpD1tKoErot-Qz8JOO8t-102" value="26" style="rounded=0;whiteSpace=wrap;html=1;fillColor=#f5f5f5;fontColor=#333333;strokeColor=#666666;" vertex="1" parent="1">
          <mxGeometry x="510" y="26" width="60" height="20" as="geometry" />
        </mxCell>
        <mxCell id="bpD1tKoErot-Qz8JOO8t-103" value="&lt;span style=&quot;color: rgb(0, 0, 0); font-family: Helvetica; font-size: 12px; font-style: normal; font-variant-ligatures: normal; font-variant-caps: normal; font-weight: 400; letter-spacing: normal; orphans: 2; text-align: center; text-indent: 0px; text-transform: none; widows: 2; word-spacing: 0px; -webkit-text-stroke-width: 0px; background-color: rgb(251, 251, 251); text-decoration-thickness: initial; text-decoration-style: initial; text-decoration-color: initial; float: none; display: inline !important;&quot;&gt;RFU&lt;/span&gt;" style="rounded=0;whiteSpace=wrap;html=1;" vertex="1" parent="1">
          <mxGeometry x="570" y="46" width="60" height="30" as="geometry" />
        </mxCell>
        <mxCell id="bpD1tKoErot-Qz8JOO8t-104" value="&lt;span style=&quot;color: rgb(0, 0, 0); font-family: Helvetica; font-size: 12px; font-style: normal; font-variant-ligatures: normal; font-variant-caps: normal; font-weight: 400; letter-spacing: normal; orphans: 2; text-align: center; text-indent: 0px; text-transform: none; widows: 2; word-spacing: 0px; -webkit-text-stroke-width: 0px; background-color: rgb(251, 251, 251); text-decoration-thickness: initial; text-decoration-style: initial; text-decoration-color: initial; float: none; display: inline !important;&quot;&gt;-&lt;/span&gt;" style="rounded=0;whiteSpace=wrap;html=1;" vertex="1" parent="1">
          <mxGeometry x="570" y="76" width="60" height="30" as="geometry" />
        </mxCell>
        <mxCell id="bpD1tKoErot-Qz8JOO8t-105" value="25" style="rounded=0;whiteSpace=wrap;html=1;fillColor=#f5f5f5;fontColor=#333333;strokeColor=#666666;" vertex="1" parent="1">
          <mxGeometry x="570" y="26" width="60" height="20" as="geometry" />
        </mxCell>
        <mxCell id="bpD1tKoErot-Qz8JOO8t-106" value="RFU" style="rounded=0;whiteSpace=wrap;html=1;" vertex="1" parent="1">
          <mxGeometry x="630" y="46" width="60" height="30" as="geometry" />
        </mxCell>
        <mxCell id="bpD1tKoErot-Qz8JOO8t-107" value="&lt;span style=&quot;color: rgb(0, 0, 0); font-family: Helvetica; font-size: 12px; font-style: normal; font-variant-ligatures: normal; font-variant-caps: normal; font-weight: 400; letter-spacing: normal; orphans: 2; text-align: center; text-indent: 0px; text-transform: none; widows: 2; word-spacing: 0px; -webkit-text-stroke-width: 0px; background-color: rgb(251, 251, 251); text-decoration-thickness: initial; text-decoration-style: initial; text-decoration-color: initial; float: none; display: inline !important;&quot;&gt;-&lt;/span&gt;" style="rounded=0;whiteSpace=wrap;html=1;" vertex="1" parent="1">
          <mxGeometry x="630" y="76" width="60" height="30" as="geometry" />
        </mxCell>
        <mxCell id="bpD1tKoErot-Qz8JOO8t-108" value="24" style="rounded=0;whiteSpace=wrap;html=1;fillColor=#f5f5f5;fontColor=#333333;strokeColor=#666666;" vertex="1" parent="1">
          <mxGeometry x="630" y="26" width="60" height="20" as="geometry" />
        </mxCell>
        <mxCell id="bpD1tKoErot-Qz8JOO8t-109" value="RFU" style="rounded=0;whiteSpace=wrap;html=1;" vertex="1" parent="1">
          <mxGeometry x="690" y="46" width="60" height="30" as="geometry" />
        </mxCell>
        <mxCell id="bpD1tKoErot-Qz8JOO8t-110" value="&lt;span style=&quot;color: rgb(0, 0, 0); font-family: Helvetica; font-size: 12px; font-style: normal; font-variant-ligatures: normal; font-variant-caps: normal; font-weight: 400; letter-spacing: normal; orphans: 2; text-align: center; text-indent: 0px; text-transform: none; widows: 2; word-spacing: 0px; -webkit-text-stroke-width: 0px; background-color: rgb(251, 251, 251); text-decoration-thickness: initial; text-decoration-style: initial; text-decoration-color: initial; float: none; display: inline !important;&quot;&gt;-&lt;/span&gt;" style="rounded=0;whiteSpace=wrap;html=1;" vertex="1" parent="1">
          <mxGeometry x="690" y="76" width="60" height="30" as="geometry" />
        </mxCell>
        <mxCell id="bpD1tKoErot-Qz8JOO8t-111" value="23" style="rounded=0;whiteSpace=wrap;html=1;fillColor=#f5f5f5;fontColor=#333333;strokeColor=#666666;" vertex="1" parent="1">
          <mxGeometry x="690" y="26" width="60" height="20" as="geometry" />
        </mxCell>
        <mxCell id="bpD1tKoErot-Qz8JOO8t-112" value="RFU" style="rounded=0;whiteSpace=wrap;html=1;" vertex="1" parent="1">
          <mxGeometry x="750" y="46" width="60" height="30" as="geometry" />
        </mxCell>
        <mxCell id="bpD1tKoErot-Qz8JOO8t-113" value="&lt;span style=&quot;color: rgb(0, 0, 0); font-family: Helvetica; font-size: 12px; font-style: normal; font-variant-ligatures: normal; font-variant-caps: normal; font-weight: 400; letter-spacing: normal; orphans: 2; text-align: center; text-indent: 0px; text-transform: none; widows: 2; word-spacing: 0px; -webkit-text-stroke-width: 0px; background-color: rgb(251, 251, 251); text-decoration-thickness: initial; text-decoration-style: initial; text-decoration-color: initial; float: none; display: inline !important;&quot;&gt;-&lt;/span&gt;" style="rounded=0;whiteSpace=wrap;html=1;" vertex="1" parent="1">
          <mxGeometry x="750" y="76" width="60" height="30" as="geometry" />
        </mxCell>
        <mxCell id="bpD1tKoErot-Qz8JOO8t-114" value="22" style="rounded=0;whiteSpace=wrap;html=1;fillColor=#f5f5f5;fontColor=#333333;strokeColor=#666666;" vertex="1" parent="1">
          <mxGeometry x="750" y="26" width="60" height="20" as="geometry" />
        </mxCell>
        <mxCell id="bpD1tKoErot-Qz8JOO8t-115" value="RFU" style="rounded=0;whiteSpace=wrap;html=1;" vertex="1" parent="1">
          <mxGeometry x="810" y="46" width="60" height="30" as="geometry" />
        </mxCell>
        <mxCell id="bpD1tKoErot-Qz8JOO8t-116" value="&lt;span style=&quot;color: rgb(0, 0, 0); font-family: Helvetica; font-size: 12px; font-style: normal; font-variant-ligatures: normal; font-variant-caps: normal; font-weight: 400; letter-spacing: normal; orphans: 2; text-align: center; text-indent: 0px; text-transform: none; widows: 2; word-spacing: 0px; -webkit-text-stroke-width: 0px; background-color: rgb(251, 251, 251); text-decoration-thickness: initial; text-decoration-style: initial; text-decoration-color: initial; float: none; display: inline !important;&quot;&gt;-&lt;/span&gt;" style="rounded=0;whiteSpace=wrap;html=1;" vertex="1" parent="1">
          <mxGeometry x="810" y="76" width="60" height="30" as="geometry" />
        </mxCell>
        <mxCell id="bpD1tKoErot-Qz8JOO8t-117" value="21" style="rounded=0;whiteSpace=wrap;html=1;fillColor=#f5f5f5;fontColor=#333333;strokeColor=#666666;" vertex="1" parent="1">
          <mxGeometry x="810" y="26" width="60" height="20" as="geometry" />
        </mxCell>
        <mxCell id="bpD1tKoErot-Qz8JOO8t-118" value="RFU" style="rounded=0;whiteSpace=wrap;html=1;" vertex="1" parent="1">
          <mxGeometry x="870" y="46" width="60" height="30" as="geometry" />
        </mxCell>
        <mxCell id="bpD1tKoErot-Qz8JOO8t-119" value="&lt;span style=&quot;color: rgb(0, 0, 0); font-family: Helvetica; font-size: 12px; font-style: normal; font-variant-ligatures: normal; font-variant-caps: normal; font-weight: 400; letter-spacing: normal; orphans: 2; text-align: center; text-indent: 0px; text-transform: none; widows: 2; word-spacing: 0px; -webkit-text-stroke-width: 0px; background-color: rgb(251, 251, 251); text-decoration-thickness: initial; text-decoration-style: initial; text-decoration-color: initial; float: none; display: inline !important;&quot;&gt;-&lt;/span&gt;" style="rounded=0;whiteSpace=wrap;html=1;" vertex="1" parent="1">
          <mxGeometry x="870" y="76" width="60" height="30" as="geometry" />
        </mxCell>
        <mxCell id="bpD1tKoErot-Qz8JOO8t-120" value="20" style="rounded=0;whiteSpace=wrap;html=1;fillColor=#f5f5f5;fontColor=#333333;strokeColor=#666666;" vertex="1" parent="1">
          <mxGeometry x="870" y="26" width="60" height="20" as="geometry" />
        </mxCell>
        <mxCell id="bpD1tKoErot-Qz8JOO8t-121" value="RFU" style="rounded=0;whiteSpace=wrap;html=1;" vertex="1" parent="1">
          <mxGeometry x="930" y="46" width="60" height="30" as="geometry" />
        </mxCell>
        <mxCell id="bpD1tKoErot-Qz8JOO8t-122" value="&lt;span style=&quot;color: rgb(0, 0, 0); font-family: Helvetica; font-size: 12px; font-style: normal; font-variant-ligatures: normal; font-variant-caps: normal; font-weight: 400; letter-spacing: normal; orphans: 2; text-align: center; text-indent: 0px; text-transform: none; widows: 2; word-spacing: 0px; -webkit-text-stroke-width: 0px; background-color: rgb(251, 251, 251); text-decoration-thickness: initial; text-decoration-style: initial; text-decoration-color: initial; float: none; display: inline !important;&quot;&gt;-&lt;/span&gt;" style="rounded=0;whiteSpace=wrap;html=1;" vertex="1" parent="1">
          <mxGeometry x="930" y="76" width="60" height="30" as="geometry" />
        </mxCell>
        <mxCell id="bpD1tKoErot-Qz8JOO8t-123" value="19" style="rounded=0;whiteSpace=wrap;html=1;fillColor=#f5f5f5;fontColor=#333333;strokeColor=#666666;" vertex="1" parent="1">
          <mxGeometry x="930" y="26" width="60" height="20" as="geometry" />
        </mxCell>
        <mxCell id="bpD1tKoErot-Qz8JOO8t-124" value="RFU" style="rounded=0;whiteSpace=wrap;html=1;" vertex="1" parent="1">
          <mxGeometry x="990" y="46" width="60" height="30" as="geometry" />
        </mxCell>
        <mxCell id="bpD1tKoErot-Qz8JOO8t-125" value="&lt;span style=&quot;color: rgb(0, 0, 0); font-family: Helvetica; font-size: 12px; font-style: normal; font-variant-ligatures: normal; font-variant-caps: normal; font-weight: 400; letter-spacing: normal; orphans: 2; text-align: center; text-indent: 0px; text-transform: none; widows: 2; word-spacing: 0px; -webkit-text-stroke-width: 0px; background-color: rgb(251, 251, 251); text-decoration-thickness: initial; text-decoration-style: initial; text-decoration-color: initial; float: none; display: inline !important;&quot;&gt;-&lt;/span&gt;" style="rounded=0;whiteSpace=wrap;html=1;" vertex="1" parent="1">
          <mxGeometry x="990" y="76" width="60" height="30" as="geometry" />
        </mxCell>
        <mxCell id="bpD1tKoErot-Qz8JOO8t-126" value="18" style="rounded=0;whiteSpace=wrap;html=1;fillColor=#f5f5f5;fontColor=#333333;strokeColor=#666666;" vertex="1" parent="1">
          <mxGeometry x="990" y="26" width="60" height="20" as="geometry" />
        </mxCell>
        <mxCell id="bpD1tKoErot-Qz8JOO8t-127" value="RFU" style="rounded=0;whiteSpace=wrap;html=1;" vertex="1" parent="1">
          <mxGeometry x="1050" y="46" width="60" height="30" as="geometry" />
        </mxCell>
        <mxCell id="bpD1tKoErot-Qz8JOO8t-128" value="&lt;span style=&quot;color: rgb(0, 0, 0); font-family: Helvetica; font-size: 12px; font-style: normal; font-variant-ligatures: normal; font-variant-caps: normal; font-weight: 400; letter-spacing: normal; orphans: 2; text-align: center; text-indent: 0px; text-transform: none; widows: 2; word-spacing: 0px; -webkit-text-stroke-width: 0px; background-color: rgb(251, 251, 251); text-decoration-thickness: initial; text-decoration-style: initial; text-decoration-color: initial; float: none; display: inline !important;&quot;&gt;-&lt;/span&gt;" style="rounded=0;whiteSpace=wrap;html=1;" vertex="1" parent="1">
          <mxGeometry x="1050" y="76" width="60" height="30" as="geometry" />
        </mxCell>
        <mxCell id="bpD1tKoErot-Qz8JOO8t-129" value="17" style="rounded=0;whiteSpace=wrap;html=1;fillColor=#f5f5f5;fontColor=#333333;strokeColor=#666666;" vertex="1" parent="1">
          <mxGeometry x="1050" y="26" width="60" height="20" as="geometry" />
        </mxCell>
        <mxCell id="bpD1tKoErot-Qz8JOO8t-130" value="RFU" style="rounded=0;whiteSpace=wrap;html=1;" vertex="1" parent="1">
          <mxGeometry x="1110" y="46" width="60" height="30" as="geometry" />
        </mxCell>
        <mxCell id="bpD1tKoErot-Qz8JOO8t-131" value="&lt;span style=&quot;color: rgb(0, 0, 0); font-family: Helvetica; font-size: 12px; font-style: normal; font-variant-ligatures: normal; font-variant-caps: normal; font-weight: 400; letter-spacing: normal; orphans: 2; text-align: center; text-indent: 0px; text-transform: none; widows: 2; word-spacing: 0px; -webkit-text-stroke-width: 0px; background-color: rgb(251, 251, 251); text-decoration-thickness: initial; text-decoration-style: initial; text-decoration-color: initial; float: none; display: inline !important;&quot;&gt;-&lt;/span&gt;" style="rounded=0;whiteSpace=wrap;html=1;" vertex="1" parent="1">
          <mxGeometry x="1110" y="76" width="60" height="30" as="geometry" />
        </mxCell>
        <mxCell id="bpD1tKoErot-Qz8JOO8t-132" value="16" style="rounded=0;whiteSpace=wrap;html=1;fillColor=#f5f5f5;fontColor=#333333;strokeColor=#666666;" vertex="1" parent="1">
          <mxGeometry x="1110" y="26" width="60" height="20" as="geometry" />
        </mxCell>
        <mxCell id="bpD1tKoErot-Qz8JOO8t-133" value="RFU" style="rounded=0;whiteSpace=wrap;html=1;" vertex="1" parent="1">
          <mxGeometry x="210" y="140" width="60" height="30" as="geometry" />
        </mxCell>
        <mxCell id="bpD1tKoErot-Qz8JOO8t-134" value="-" style="rounded=0;whiteSpace=wrap;html=1;" vertex="1" parent="1">
          <mxGeometry x="210" y="170" width="60" height="30" as="geometry" />
        </mxCell>
        <mxCell id="bpD1tKoErot-Qz8JOO8t-135" value="15" style="rounded=0;whiteSpace=wrap;html=1;fillColor=#f5f5f5;fontColor=#333333;strokeColor=#666666;" vertex="1" parent="1">
          <mxGeometry x="210" y="120" width="60" height="20" as="geometry" />
        </mxCell>
        <mxCell id="bpD1tKoErot-Qz8JOO8t-136" value="RFU" style="rounded=0;whiteSpace=wrap;html=1;" vertex="1" parent="1">
          <mxGeometry x="270" y="140" width="60" height="30" as="geometry" />
        </mxCell>
        <mxCell id="bpD1tKoErot-Qz8JOO8t-137" value="-" style="rounded=0;whiteSpace=wrap;html=1;" vertex="1" parent="1">
          <mxGeometry x="270" y="170" width="60" height="30" as="geometry" />
        </mxCell>
        <mxCell id="bpD1tKoErot-Qz8JOO8t-138" value="14" style="rounded=0;whiteSpace=wrap;html=1;fillColor=#f5f5f5;fontColor=#333333;strokeColor=#666666;" vertex="1" parent="1">
          <mxGeometry x="270" y="120" width="60" height="20" as="geometry" />
        </mxCell>
        <mxCell id="bpD1tKoErot-Qz8JOO8t-139" value="RFU" style="rounded=0;whiteSpace=wrap;html=1;" vertex="1" parent="1">
          <mxGeometry x="330" y="140" width="60" height="30" as="geometry" />
        </mxCell>
        <mxCell id="bpD1tKoErot-Qz8JOO8t-140" value="-" style="rounded=0;whiteSpace=wrap;html=1;" vertex="1" parent="1">
          <mxGeometry x="330" y="170" width="60" height="30" as="geometry" />
        </mxCell>
        <mxCell id="bpD1tKoErot-Qz8JOO8t-141" value="13" style="rounded=0;whiteSpace=wrap;html=1;fillColor=#f5f5f5;fontColor=#333333;strokeColor=#666666;" vertex="1" parent="1">
          <mxGeometry x="330" y="120" width="60" height="20" as="geometry" />
        </mxCell>
        <mxCell id="bpD1tKoErot-Qz8JOO8t-142" value="RFU" style="rounded=0;whiteSpace=wrap;html=1;" vertex="1" parent="1">
          <mxGeometry x="390" y="140" width="60" height="30" as="geometry" />
        </mxCell>
        <mxCell id="bpD1tKoErot-Qz8JOO8t-143" value="-" style="rounded=0;whiteSpace=wrap;html=1;" vertex="1" parent="1">
          <mxGeometry x="390" y="170" width="60" height="30" as="geometry" />
        </mxCell>
        <mxCell id="bpD1tKoErot-Qz8JOO8t-144" value="12" style="rounded=0;whiteSpace=wrap;html=1;fillColor=#f5f5f5;fontColor=#333333;strokeColor=#666666;" vertex="1" parent="1">
          <mxGeometry x="390" y="120" width="60" height="20" as="geometry" />
        </mxCell>
        <mxCell id="bpD1tKoErot-Qz8JOO8t-145" value="RFU" style="rounded=0;whiteSpace=wrap;html=1;" vertex="1" parent="1">
          <mxGeometry x="450" y="140" width="60" height="30" as="geometry" />
        </mxCell>
        <mxCell id="bpD1tKoErot-Qz8JOO8t-146" value="-" style="rounded=0;whiteSpace=wrap;html=1;" vertex="1" parent="1">
          <mxGeometry x="450" y="170" width="60" height="30" as="geometry" />
        </mxCell>
        <mxCell id="bpD1tKoErot-Qz8JOO8t-147" value="11" style="rounded=0;whiteSpace=wrap;html=1;fillColor=#f5f5f5;fontColor=#333333;strokeColor=#666666;" vertex="1" parent="1">
          <mxGeometry x="450" y="120" width="60" height="20" as="geometry" />
        </mxCell>
        <mxCell id="bpD1tKoErot-Qz8JOO8t-148" value="RFU" style="rounded=0;whiteSpace=wrap;html=1;" vertex="1" parent="1">
          <mxGeometry x="510" y="140" width="60" height="30" as="geometry" />
        </mxCell>
        <mxCell id="bpD1tKoErot-Qz8JOO8t-149" value="-" style="rounded=0;whiteSpace=wrap;html=1;" vertex="1" parent="1">
          <mxGeometry x="510" y="170" width="60" height="30" as="geometry" />
        </mxCell>
        <mxCell id="bpD1tKoErot-Qz8JOO8t-150" value="10" style="rounded=0;whiteSpace=wrap;html=1;fillColor=#f5f5f5;fontColor=#333333;strokeColor=#666666;" vertex="1" parent="1">
          <mxGeometry x="510" y="120" width="60" height="20" as="geometry" />
        </mxCell>
        <mxCell id="bpD1tKoErot-Qz8JOO8t-151" value="RFU" style="rounded=0;whiteSpace=wrap;html=1;" vertex="1" parent="1">
          <mxGeometry x="570" y="140" width="60" height="30" as="geometry" />
        </mxCell>
        <mxCell id="bpD1tKoErot-Qz8JOO8t-152" value="-" style="rounded=0;whiteSpace=wrap;html=1;" vertex="1" parent="1">
          <mxGeometry x="570" y="170" width="60" height="30" as="geometry" />
        </mxCell>
        <mxCell id="bpD1tKoErot-Qz8JOO8t-153" value="9" style="rounded=0;whiteSpace=wrap;html=1;fillColor=#f5f5f5;fontColor=#333333;strokeColor=#666666;" vertex="1" parent="1">
          <mxGeometry x="570" y="120" width="60" height="20" as="geometry" />
        </mxCell>
        <mxCell id="bpD1tKoErot-Qz8JOO8t-154" value="RFU" style="rounded=0;whiteSpace=wrap;html=1;" vertex="1" parent="1">
          <mxGeometry x="630" y="140" width="60" height="30" as="geometry" />
        </mxCell>
        <mxCell id="bpD1tKoErot-Qz8JOO8t-155" value="-" style="rounded=0;whiteSpace=wrap;html=1;" vertex="1" parent="1">
          <mxGeometry x="630" y="170" width="60" height="30" as="geometry" />
        </mxCell>
        <mxCell id="bpD1tKoErot-Qz8JOO8t-156" value="8" style="rounded=0;whiteSpace=wrap;html=1;fillColor=#f5f5f5;fontColor=#333333;strokeColor=#666666;" vertex="1" parent="1">
          <mxGeometry x="630" y="120" width="60" height="20" as="geometry" />
        </mxCell>
        <mxCell id="bpD1tKoErot-Qz8JOO8t-157" value="7" style="rounded=0;whiteSpace=wrap;html=1;fillColor=#f5f5f5;fontColor=#333333;strokeColor=#666666;" vertex="1" parent="1">
          <mxGeometry x="690" y="120" width="60" height="20" as="geometry" />
        </mxCell>
        <mxCell id="bpD1tKoErot-Qz8JOO8t-158" value="6" style="rounded=0;whiteSpace=wrap;html=1;fillColor=#f5f5f5;fontColor=#333333;strokeColor=#666666;" vertex="1" parent="1">
          <mxGeometry x="750" y="120" width="60" height="20" as="geometry" />
        </mxCell>
        <mxCell id="bpD1tKoErot-Qz8JOO8t-159" value="5" style="rounded=0;whiteSpace=wrap;html=1;fillColor=#f5f5f5;fontColor=#333333;strokeColor=#666666;" vertex="1" parent="1">
          <mxGeometry x="810" y="120" width="60" height="20" as="geometry" />
        </mxCell>
        <mxCell id="bpD1tKoErot-Qz8JOO8t-160" value="4" style="rounded=0;whiteSpace=wrap;html=1;fillColor=#f5f5f5;fontColor=#333333;strokeColor=#666666;" vertex="1" parent="1">
          <mxGeometry x="870" y="120" width="60" height="20" as="geometry" />
        </mxCell>
        <mxCell id="bpD1tKoErot-Qz8JOO8t-161" value="3" style="rounded=0;whiteSpace=wrap;html=1;fillColor=#f5f5f5;fontColor=#333333;strokeColor=#666666;" vertex="1" parent="1">
          <mxGeometry x="930" y="120" width="60" height="20" as="geometry" />
        </mxCell>
        <mxCell id="bpD1tKoErot-Qz8JOO8t-162" value="2" style="rounded=0;whiteSpace=wrap;html=1;fillColor=#f5f5f5;fontColor=#333333;strokeColor=#666666;" vertex="1" parent="1">
          <mxGeometry x="990" y="120" width="60" height="20" as="geometry" />
        </mxCell>
        <mxCell id="bpD1tKoErot-Qz8JOO8t-163" value="1" style="rounded=0;whiteSpace=wrap;html=1;fillColor=#f5f5f5;fontColor=#333333;strokeColor=#666666;" vertex="1" parent="1">
          <mxGeometry x="1050" y="120" width="60" height="20" as="geometry" />
        </mxCell>
        <mxCell id="bpD1tKoErot-Qz8JOO8t-164" value="&lt;b&gt;RX_BUFF&lt;/b&gt;" style="rounded=0;whiteSpace=wrap;html=1;" vertex="1" parent="1">
          <mxGeometry x="690" y="140" width="480" height="30" as="geometry" />
        </mxCell>
        <mxCell id="bpD1tKoErot-Qz8JOO8t-165" value="RW" style="rounded=0;whiteSpace=wrap;html=1;" vertex="1" parent="1">
          <mxGeometry x="690" y="170" width="480" height="30" as="geometry" />
        </mxCell>
        <mxCell id="bpD1tKoErot-Qz8JOO8t-166" value="0" style="rounded=0;whiteSpace=wrap;html=1;fillColor=#f5f5f5;fontColor=#333333;strokeColor=#666666;" vertex="1" parent="1">
          <mxGeometry x="1110" y="120" width="60" height="20" as="geometry" />
        </mxCell>
        <mxCell id="bpD1tKoErot-Qz8JOO8t-167" value="&lt;b&gt;UART_RXBUFF : 0x03&lt;/b&gt;" style="text;html=1;align=left;verticalAlign=middle;resizable=0;points=[];autosize=1;strokeColor=none;fillColor=none;" vertex="1" parent="1">
          <mxGeometry x="210" width="150" height="30" as="geometry" />
        </mxCell>
        <mxCell id="bpD1tKoErot-Qz8JOO8t-168" value="&lt;b&gt;Bit 0-7 : RX_BUFF&lt;/b&gt;&lt;br&gt;&lt;div&gt;&lt;span style=&quot;font-weight: bold; white-space: pre;&quot;&gt;&#x9;&lt;/span&gt;&lt;span lang=&quot;en&quot; class=&quot;HwtZe&quot;&gt;&lt;span class=&quot;jCAhz ChMk0b&quot;&gt;&lt;span class=&quot;ryNqvb&quot;&gt;Data received by the UART peripheral&lt;/span&gt;&lt;/span&gt;&lt;/span&gt;&lt;span class=&quot;ZSCsVd&quot;&gt;&lt;span class=&quot;azoIfb&quot;&gt;&lt;/span&gt;&lt;/span&gt;&lt;span class=&quot;ZSCsVd&quot;&gt;&lt;span class=&quot;azoIfb&quot;&gt;&lt;/span&gt;&lt;/span&gt;&lt;/div&gt;&lt;div&gt;&lt;div&gt;&lt;div&gt;&lt;div&gt;&lt;br&gt;&lt;/div&gt;&lt;/div&gt;&lt;/div&gt;&lt;/div&gt;&lt;div&gt;&lt;span style=&quot;white-space: pre;&quot;&gt;&lt;/span&gt;All other values are &lt;b&gt;RFU&lt;/b&gt;&lt;span style=&quot;white-space: pre;&quot;&gt;&lt;/span&gt;&lt;/div&gt;" style="text;html=1;align=left;verticalAlign=middle;resizable=0;points=[];autosize=1;strokeColor=none;fillColor=none;rotation=0;" vertex="1" parent="1">
          <mxGeometry x="210" y="203" width="250" height="70" as="geometry" />
        </mxCell>
        <mxCell id="9CAixmzG4GWBAlm5Qyrl-1" value="RFU" style="rounded=0;whiteSpace=wrap;html=1;" vertex="1" parent="1">
          <mxGeometry x="210" y="-644" width="60" height="30" as="geometry" />
        </mxCell>
        <mxCell id="9CAixmzG4GWBAlm5Qyrl-2" value="&lt;span style=&quot;color: rgb(0, 0, 0); font-family: Helvetica; font-size: 12px; font-style: normal; font-variant-ligatures: normal; font-variant-caps: normal; font-weight: 400; letter-spacing: normal; orphans: 2; text-align: center; text-indent: 0px; text-transform: none; widows: 2; word-spacing: 0px; -webkit-text-stroke-width: 0px; background-color: rgb(251, 251, 251); text-decoration-thickness: initial; text-decoration-style: initial; text-decoration-color: initial; float: none; display: inline !important;&quot;&gt;-&lt;/span&gt;" style="rounded=0;whiteSpace=wrap;html=1;" vertex="1" parent="1">
          <mxGeometry x="210" y="-614" width="60" height="30" as="geometry" />
        </mxCell>
        <mxCell id="9CAixmzG4GWBAlm5Qyrl-3" value="31" style="rounded=0;whiteSpace=wrap;html=1;fillColor=#f5f5f5;fontColor=#333333;strokeColor=#666666;" vertex="1" parent="1">
          <mxGeometry x="210" y="-664" width="60" height="20" as="geometry" />
        </mxCell>
        <mxCell id="9CAixmzG4GWBAlm5Qyrl-4" value="RFU" style="rounded=0;whiteSpace=wrap;html=1;" vertex="1" parent="1">
          <mxGeometry x="270" y="-644" width="60" height="30" as="geometry" />
        </mxCell>
        <mxCell id="9CAixmzG4GWBAlm5Qyrl-5" value="-" style="rounded=0;whiteSpace=wrap;html=1;" vertex="1" parent="1">
          <mxGeometry x="270" y="-614" width="60" height="30" as="geometry" />
        </mxCell>
        <mxCell id="9CAixmzG4GWBAlm5Qyrl-6" value="30" style="rounded=0;whiteSpace=wrap;html=1;fillColor=#f5f5f5;fontColor=#333333;strokeColor=#666666;" vertex="1" parent="1">
          <mxGeometry x="270" y="-664" width="60" height="20" as="geometry" />
        </mxCell>
        <mxCell id="9CAixmzG4GWBAlm5Qyrl-7" value="RFU" style="rounded=0;whiteSpace=wrap;html=1;" vertex="1" parent="1">
          <mxGeometry x="330" y="-644" width="60" height="30" as="geometry" />
        </mxCell>
        <mxCell id="9CAixmzG4GWBAlm5Qyrl-8" value="-" style="rounded=0;whiteSpace=wrap;html=1;" vertex="1" parent="1">
          <mxGeometry x="330" y="-614" width="60" height="30" as="geometry" />
        </mxCell>
        <mxCell id="9CAixmzG4GWBAlm5Qyrl-9" value="29" style="rounded=0;whiteSpace=wrap;html=1;fillColor=#f5f5f5;fontColor=#333333;strokeColor=#666666;" vertex="1" parent="1">
          <mxGeometry x="330" y="-664" width="60" height="20" as="geometry" />
        </mxCell>
        <mxCell id="9CAixmzG4GWBAlm5Qyrl-10" value="RFU" style="rounded=0;whiteSpace=wrap;html=1;" vertex="1" parent="1">
          <mxGeometry x="390" y="-644" width="60" height="30" as="geometry" />
        </mxCell>
        <mxCell id="9CAixmzG4GWBAlm5Qyrl-11" value="-" style="rounded=0;whiteSpace=wrap;html=1;" vertex="1" parent="1">
          <mxGeometry x="390" y="-614" width="60" height="30" as="geometry" />
        </mxCell>
        <mxCell id="9CAixmzG4GWBAlm5Qyrl-12" value="28" style="rounded=0;whiteSpace=wrap;html=1;fillColor=#f5f5f5;fontColor=#333333;strokeColor=#666666;" vertex="1" parent="1">
          <mxGeometry x="390" y="-664" width="60" height="20" as="geometry" />
        </mxCell>
        <mxCell id="9CAixmzG4GWBAlm5Qyrl-13" value="RFU" style="rounded=0;whiteSpace=wrap;html=1;" vertex="1" parent="1">
          <mxGeometry x="450" y="-644" width="60" height="30" as="geometry" />
        </mxCell>
        <mxCell id="9CAixmzG4GWBAlm5Qyrl-14" value="-" style="rounded=0;whiteSpace=wrap;html=1;" vertex="1" parent="1">
          <mxGeometry x="450" y="-614" width="60" height="30" as="geometry" />
        </mxCell>
        <mxCell id="9CAixmzG4GWBAlm5Qyrl-15" value="27" style="rounded=0;whiteSpace=wrap;html=1;fillColor=#f5f5f5;fontColor=#333333;strokeColor=#666666;" vertex="1" parent="1">
          <mxGeometry x="450" y="-664" width="60" height="20" as="geometry" />
        </mxCell>
        <mxCell id="9CAixmzG4GWBAlm5Qyrl-16" value="RFU" style="rounded=0;whiteSpace=wrap;html=1;" vertex="1" parent="1">
          <mxGeometry x="510" y="-644" width="60" height="30" as="geometry" />
        </mxCell>
        <mxCell id="9CAixmzG4GWBAlm5Qyrl-17" value="&lt;span style=&quot;color: rgb(0, 0, 0); font-family: Helvetica; font-size: 12px; font-style: normal; font-variant-ligatures: normal; font-variant-caps: normal; font-weight: 400; letter-spacing: normal; orphans: 2; text-align: center; text-indent: 0px; text-transform: none; widows: 2; word-spacing: 0px; -webkit-text-stroke-width: 0px; background-color: rgb(251, 251, 251); text-decoration-thickness: initial; text-decoration-style: initial; text-decoration-color: initial; float: none; display: inline !important;&quot;&gt;-&lt;/span&gt;" style="rounded=0;whiteSpace=wrap;html=1;" vertex="1" parent="1">
          <mxGeometry x="510" y="-614" width="60" height="30" as="geometry" />
        </mxCell>
        <mxCell id="9CAixmzG4GWBAlm5Qyrl-18" value="26" style="rounded=0;whiteSpace=wrap;html=1;fillColor=#f5f5f5;fontColor=#333333;strokeColor=#666666;" vertex="1" parent="1">
          <mxGeometry x="510" y="-664" width="60" height="20" as="geometry" />
        </mxCell>
        <mxCell id="9CAixmzG4GWBAlm5Qyrl-19" value="&lt;span style=&quot;color: rgb(0, 0, 0); font-family: Helvetica; font-size: 12px; font-style: normal; font-variant-ligatures: normal; font-variant-caps: normal; font-weight: 400; letter-spacing: normal; orphans: 2; text-align: center; text-indent: 0px; text-transform: none; widows: 2; word-spacing: 0px; -webkit-text-stroke-width: 0px; background-color: rgb(251, 251, 251); text-decoration-thickness: initial; text-decoration-style: initial; text-decoration-color: initial; float: none; display: inline !important;&quot;&gt;RFU&lt;/span&gt;" style="rounded=0;whiteSpace=wrap;html=1;" vertex="1" parent="1">
          <mxGeometry x="570" y="-644" width="60" height="30" as="geometry" />
        </mxCell>
        <mxCell id="9CAixmzG4GWBAlm5Qyrl-20" value="&lt;span style=&quot;color: rgb(0, 0, 0); font-family: Helvetica; font-size: 12px; font-style: normal; font-variant-ligatures: normal; font-variant-caps: normal; font-weight: 400; letter-spacing: normal; orphans: 2; text-align: center; text-indent: 0px; text-transform: none; widows: 2; word-spacing: 0px; -webkit-text-stroke-width: 0px; background-color: rgb(251, 251, 251); text-decoration-thickness: initial; text-decoration-style: initial; text-decoration-color: initial; float: none; display: inline !important;&quot;&gt;-&lt;/span&gt;" style="rounded=0;whiteSpace=wrap;html=1;" vertex="1" parent="1">
          <mxGeometry x="570" y="-614" width="60" height="30" as="geometry" />
        </mxCell>
        <mxCell id="9CAixmzG4GWBAlm5Qyrl-21" value="25" style="rounded=0;whiteSpace=wrap;html=1;fillColor=#f5f5f5;fontColor=#333333;strokeColor=#666666;" vertex="1" parent="1">
          <mxGeometry x="570" y="-664" width="60" height="20" as="geometry" />
        </mxCell>
        <mxCell id="9CAixmzG4GWBAlm5Qyrl-22" value="RFU" style="rounded=0;whiteSpace=wrap;html=1;" vertex="1" parent="1">
          <mxGeometry x="630" y="-644" width="60" height="30" as="geometry" />
        </mxCell>
        <mxCell id="9CAixmzG4GWBAlm5Qyrl-23" value="&lt;span style=&quot;color: rgb(0, 0, 0); font-family: Helvetica; font-size: 12px; font-style: normal; font-variant-ligatures: normal; font-variant-caps: normal; font-weight: 400; letter-spacing: normal; orphans: 2; text-align: center; text-indent: 0px; text-transform: none; widows: 2; word-spacing: 0px; -webkit-text-stroke-width: 0px; background-color: rgb(251, 251, 251); text-decoration-thickness: initial; text-decoration-style: initial; text-decoration-color: initial; float: none; display: inline !important;&quot;&gt;-&lt;/span&gt;" style="rounded=0;whiteSpace=wrap;html=1;" vertex="1" parent="1">
          <mxGeometry x="630" y="-614" width="60" height="30" as="geometry" />
        </mxCell>
        <mxCell id="9CAixmzG4GWBAlm5Qyrl-24" value="24" style="rounded=0;whiteSpace=wrap;html=1;fillColor=#f5f5f5;fontColor=#333333;strokeColor=#666666;" vertex="1" parent="1">
          <mxGeometry x="630" y="-664" width="60" height="20" as="geometry" />
        </mxCell>
        <mxCell id="9CAixmzG4GWBAlm5Qyrl-25" value="RFU" style="rounded=0;whiteSpace=wrap;html=1;" vertex="1" parent="1">
          <mxGeometry x="690" y="-644" width="60" height="30" as="geometry" />
        </mxCell>
        <mxCell id="9CAixmzG4GWBAlm5Qyrl-26" value="&lt;span style=&quot;color: rgb(0, 0, 0); font-family: Helvetica; font-size: 12px; font-style: normal; font-variant-ligatures: normal; font-variant-caps: normal; font-weight: 400; letter-spacing: normal; orphans: 2; text-align: center; text-indent: 0px; text-transform: none; widows: 2; word-spacing: 0px; -webkit-text-stroke-width: 0px; background-color: rgb(251, 251, 251); text-decoration-thickness: initial; text-decoration-style: initial; text-decoration-color: initial; float: none; display: inline !important;&quot;&gt;-&lt;/span&gt;" style="rounded=0;whiteSpace=wrap;html=1;" vertex="1" parent="1">
          <mxGeometry x="690" y="-614" width="60" height="30" as="geometry" />
        </mxCell>
        <mxCell id="9CAixmzG4GWBAlm5Qyrl-27" value="23" style="rounded=0;whiteSpace=wrap;html=1;fillColor=#f5f5f5;fontColor=#333333;strokeColor=#666666;" vertex="1" parent="1">
          <mxGeometry x="690" y="-664" width="60" height="20" as="geometry" />
        </mxCell>
        <mxCell id="9CAixmzG4GWBAlm5Qyrl-28" value="RFU" style="rounded=0;whiteSpace=wrap;html=1;" vertex="1" parent="1">
          <mxGeometry x="750" y="-644" width="60" height="30" as="geometry" />
        </mxCell>
        <mxCell id="9CAixmzG4GWBAlm5Qyrl-29" value="&lt;span style=&quot;color: rgb(0, 0, 0); font-family: Helvetica; font-size: 12px; font-style: normal; font-variant-ligatures: normal; font-variant-caps: normal; font-weight: 400; letter-spacing: normal; orphans: 2; text-align: center; text-indent: 0px; text-transform: none; widows: 2; word-spacing: 0px; -webkit-text-stroke-width: 0px; background-color: rgb(251, 251, 251); text-decoration-thickness: initial; text-decoration-style: initial; text-decoration-color: initial; float: none; display: inline !important;&quot;&gt;-&lt;/span&gt;" style="rounded=0;whiteSpace=wrap;html=1;" vertex="1" parent="1">
          <mxGeometry x="750" y="-614" width="60" height="30" as="geometry" />
        </mxCell>
        <mxCell id="9CAixmzG4GWBAlm5Qyrl-30" value="22" style="rounded=0;whiteSpace=wrap;html=1;fillColor=#f5f5f5;fontColor=#333333;strokeColor=#666666;" vertex="1" parent="1">
          <mxGeometry x="750" y="-664" width="60" height="20" as="geometry" />
        </mxCell>
        <mxCell id="9CAixmzG4GWBAlm5Qyrl-31" value="RFU" style="rounded=0;whiteSpace=wrap;html=1;" vertex="1" parent="1">
          <mxGeometry x="810" y="-644" width="60" height="30" as="geometry" />
        </mxCell>
        <mxCell id="9CAixmzG4GWBAlm5Qyrl-32" value="&lt;span style=&quot;color: rgb(0, 0, 0); font-family: Helvetica; font-size: 12px; font-style: normal; font-variant-ligatures: normal; font-variant-caps: normal; font-weight: 400; letter-spacing: normal; orphans: 2; text-align: center; text-indent: 0px; text-transform: none; widows: 2; word-spacing: 0px; -webkit-text-stroke-width: 0px; background-color: rgb(251, 251, 251); text-decoration-thickness: initial; text-decoration-style: initial; text-decoration-color: initial; float: none; display: inline !important;&quot;&gt;-&lt;/span&gt;" style="rounded=0;whiteSpace=wrap;html=1;" vertex="1" parent="1">
          <mxGeometry x="810" y="-614" width="60" height="30" as="geometry" />
        </mxCell>
        <mxCell id="9CAixmzG4GWBAlm5Qyrl-33" value="21" style="rounded=0;whiteSpace=wrap;html=1;fillColor=#f5f5f5;fontColor=#333333;strokeColor=#666666;" vertex="1" parent="1">
          <mxGeometry x="810" y="-664" width="60" height="20" as="geometry" />
        </mxCell>
        <mxCell id="9CAixmzG4GWBAlm5Qyrl-34" value="RFU" style="rounded=0;whiteSpace=wrap;html=1;" vertex="1" parent="1">
          <mxGeometry x="870" y="-644" width="60" height="30" as="geometry" />
        </mxCell>
        <mxCell id="9CAixmzG4GWBAlm5Qyrl-35" value="&lt;span style=&quot;color: rgb(0, 0, 0); font-family: Helvetica; font-size: 12px; font-style: normal; font-variant-ligatures: normal; font-variant-caps: normal; font-weight: 400; letter-spacing: normal; orphans: 2; text-align: center; text-indent: 0px; text-transform: none; widows: 2; word-spacing: 0px; -webkit-text-stroke-width: 0px; background-color: rgb(251, 251, 251); text-decoration-thickness: initial; text-decoration-style: initial; text-decoration-color: initial; float: none; display: inline !important;&quot;&gt;-&lt;/span&gt;" style="rounded=0;whiteSpace=wrap;html=1;" vertex="1" parent="1">
          <mxGeometry x="870" y="-614" width="60" height="30" as="geometry" />
        </mxCell>
        <mxCell id="9CAixmzG4GWBAlm5Qyrl-36" value="20" style="rounded=0;whiteSpace=wrap;html=1;fillColor=#f5f5f5;fontColor=#333333;strokeColor=#666666;" vertex="1" parent="1">
          <mxGeometry x="870" y="-664" width="60" height="20" as="geometry" />
        </mxCell>
        <mxCell id="9CAixmzG4GWBAlm5Qyrl-37" value="RFU" style="rounded=0;whiteSpace=wrap;html=1;" vertex="1" parent="1">
          <mxGeometry x="930" y="-644" width="60" height="30" as="geometry" />
        </mxCell>
        <mxCell id="9CAixmzG4GWBAlm5Qyrl-38" value="&lt;span style=&quot;color: rgb(0, 0, 0); font-family: Helvetica; font-size: 12px; font-style: normal; font-variant-ligatures: normal; font-variant-caps: normal; font-weight: 400; letter-spacing: normal; orphans: 2; text-align: center; text-indent: 0px; text-transform: none; widows: 2; word-spacing: 0px; -webkit-text-stroke-width: 0px; background-color: rgb(251, 251, 251); text-decoration-thickness: initial; text-decoration-style: initial; text-decoration-color: initial; float: none; display: inline !important;&quot;&gt;-&lt;/span&gt;" style="rounded=0;whiteSpace=wrap;html=1;" vertex="1" parent="1">
          <mxGeometry x="930" y="-614" width="60" height="30" as="geometry" />
        </mxCell>
        <mxCell id="9CAixmzG4GWBAlm5Qyrl-39" value="19" style="rounded=0;whiteSpace=wrap;html=1;fillColor=#f5f5f5;fontColor=#333333;strokeColor=#666666;" vertex="1" parent="1">
          <mxGeometry x="930" y="-664" width="60" height="20" as="geometry" />
        </mxCell>
        <mxCell id="9CAixmzG4GWBAlm5Qyrl-40" value="RFU" style="rounded=0;whiteSpace=wrap;html=1;" vertex="1" parent="1">
          <mxGeometry x="990" y="-644" width="60" height="30" as="geometry" />
        </mxCell>
        <mxCell id="9CAixmzG4GWBAlm5Qyrl-41" value="&lt;span style=&quot;color: rgb(0, 0, 0); font-family: Helvetica; font-size: 12px; font-style: normal; font-variant-ligatures: normal; font-variant-caps: normal; font-weight: 400; letter-spacing: normal; orphans: 2; text-align: center; text-indent: 0px; text-transform: none; widows: 2; word-spacing: 0px; -webkit-text-stroke-width: 0px; background-color: rgb(251, 251, 251); text-decoration-thickness: initial; text-decoration-style: initial; text-decoration-color: initial; float: none; display: inline !important;&quot;&gt;-&lt;/span&gt;" style="rounded=0;whiteSpace=wrap;html=1;" vertex="1" parent="1">
          <mxGeometry x="990" y="-614" width="60" height="30" as="geometry" />
        </mxCell>
        <mxCell id="9CAixmzG4GWBAlm5Qyrl-42" value="18" style="rounded=0;whiteSpace=wrap;html=1;fillColor=#f5f5f5;fontColor=#333333;strokeColor=#666666;" vertex="1" parent="1">
          <mxGeometry x="990" y="-664" width="60" height="20" as="geometry" />
        </mxCell>
        <mxCell id="9CAixmzG4GWBAlm5Qyrl-43" value="RFU" style="rounded=0;whiteSpace=wrap;html=1;" vertex="1" parent="1">
          <mxGeometry x="1050" y="-644" width="60" height="30" as="geometry" />
        </mxCell>
        <mxCell id="9CAixmzG4GWBAlm5Qyrl-44" value="&lt;span style=&quot;color: rgb(0, 0, 0); font-family: Helvetica; font-size: 12px; font-style: normal; font-variant-ligatures: normal; font-variant-caps: normal; font-weight: 400; letter-spacing: normal; orphans: 2; text-align: center; text-indent: 0px; text-transform: none; widows: 2; word-spacing: 0px; -webkit-text-stroke-width: 0px; background-color: rgb(251, 251, 251); text-decoration-thickness: initial; text-decoration-style: initial; text-decoration-color: initial; float: none; display: inline !important;&quot;&gt;-&lt;/span&gt;" style="rounded=0;whiteSpace=wrap;html=1;" vertex="1" parent="1">
          <mxGeometry x="1050" y="-614" width="60" height="30" as="geometry" />
        </mxCell>
        <mxCell id="9CAixmzG4GWBAlm5Qyrl-45" value="17" style="rounded=0;whiteSpace=wrap;html=1;fillColor=#f5f5f5;fontColor=#333333;strokeColor=#666666;" vertex="1" parent="1">
          <mxGeometry x="1050" y="-664" width="60" height="20" as="geometry" />
        </mxCell>
        <mxCell id="9CAixmzG4GWBAlm5Qyrl-46" value="RFU" style="rounded=0;whiteSpace=wrap;html=1;" vertex="1" parent="1">
          <mxGeometry x="1110" y="-644" width="60" height="30" as="geometry" />
        </mxCell>
        <mxCell id="9CAixmzG4GWBAlm5Qyrl-47" value="&lt;span style=&quot;color: rgb(0, 0, 0); font-family: Helvetica; font-size: 12px; font-style: normal; font-variant-ligatures: normal; font-variant-caps: normal; font-weight: 400; letter-spacing: normal; orphans: 2; text-align: center; text-indent: 0px; text-transform: none; widows: 2; word-spacing: 0px; -webkit-text-stroke-width: 0px; background-color: rgb(251, 251, 251); text-decoration-thickness: initial; text-decoration-style: initial; text-decoration-color: initial; float: none; display: inline !important;&quot;&gt;-&lt;/span&gt;" style="rounded=0;whiteSpace=wrap;html=1;" vertex="1" parent="1">
          <mxGeometry x="1110" y="-614" width="60" height="30" as="geometry" />
        </mxCell>
        <mxCell id="9CAixmzG4GWBAlm5Qyrl-48" value="16" style="rounded=0;whiteSpace=wrap;html=1;fillColor=#f5f5f5;fontColor=#333333;strokeColor=#666666;" vertex="1" parent="1">
          <mxGeometry x="1110" y="-664" width="60" height="20" as="geometry" />
        </mxCell>
        <mxCell id="9CAixmzG4GWBAlm5Qyrl-49" value="RFU" style="rounded=0;whiteSpace=wrap;html=1;" vertex="1" parent="1">
          <mxGeometry x="210" y="-550" width="60" height="30" as="geometry" />
        </mxCell>
        <mxCell id="9CAixmzG4GWBAlm5Qyrl-50" value="-" style="rounded=0;whiteSpace=wrap;html=1;" vertex="1" parent="1">
          <mxGeometry x="210" y="-520" width="60" height="30" as="geometry" />
        </mxCell>
        <mxCell id="9CAixmzG4GWBAlm5Qyrl-51" value="15" style="rounded=0;whiteSpace=wrap;html=1;fillColor=#f5f5f5;fontColor=#333333;strokeColor=#666666;" vertex="1" parent="1">
          <mxGeometry x="210" y="-570" width="60" height="20" as="geometry" />
        </mxCell>
        <mxCell id="9CAixmzG4GWBAlm5Qyrl-52" value="RFU" style="rounded=0;whiteSpace=wrap;html=1;" vertex="1" parent="1">
          <mxGeometry x="270" y="-550" width="60" height="30" as="geometry" />
        </mxCell>
        <mxCell id="9CAixmzG4GWBAlm5Qyrl-53" value="-" style="rounded=0;whiteSpace=wrap;html=1;" vertex="1" parent="1">
          <mxGeometry x="270" y="-520" width="60" height="30" as="geometry" />
        </mxCell>
        <mxCell id="9CAixmzG4GWBAlm5Qyrl-54" value="14" style="rounded=0;whiteSpace=wrap;html=1;fillColor=#f5f5f5;fontColor=#333333;strokeColor=#666666;" vertex="1" parent="1">
          <mxGeometry x="270" y="-570" width="60" height="20" as="geometry" />
        </mxCell>
        <mxCell id="9CAixmzG4GWBAlm5Qyrl-55" value="RFU" style="rounded=0;whiteSpace=wrap;html=1;" vertex="1" parent="1">
          <mxGeometry x="330" y="-550" width="60" height="30" as="geometry" />
        </mxCell>
        <mxCell id="9CAixmzG4GWBAlm5Qyrl-56" value="-" style="rounded=0;whiteSpace=wrap;html=1;" vertex="1" parent="1">
          <mxGeometry x="330" y="-520" width="60" height="30" as="geometry" />
        </mxCell>
        <mxCell id="9CAixmzG4GWBAlm5Qyrl-57" value="13" style="rounded=0;whiteSpace=wrap;html=1;fillColor=#f5f5f5;fontColor=#333333;strokeColor=#666666;" vertex="1" parent="1">
          <mxGeometry x="330" y="-570" width="60" height="20" as="geometry" />
        </mxCell>
        <mxCell id="9CAixmzG4GWBAlm5Qyrl-58" value="RFU" style="rounded=0;whiteSpace=wrap;html=1;" vertex="1" parent="1">
          <mxGeometry x="390" y="-550" width="60" height="30" as="geometry" />
        </mxCell>
        <mxCell id="9CAixmzG4GWBAlm5Qyrl-59" value="-" style="rounded=0;whiteSpace=wrap;html=1;" vertex="1" parent="1">
          <mxGeometry x="390" y="-520" width="60" height="30" as="geometry" />
        </mxCell>
        <mxCell id="9CAixmzG4GWBAlm5Qyrl-60" value="12" style="rounded=0;whiteSpace=wrap;html=1;fillColor=#f5f5f5;fontColor=#333333;strokeColor=#666666;" vertex="1" parent="1">
          <mxGeometry x="390" y="-570" width="60" height="20" as="geometry" />
        </mxCell>
        <mxCell id="9CAixmzG4GWBAlm5Qyrl-61" value="RFU" style="rounded=0;whiteSpace=wrap;html=1;" vertex="1" parent="1">
          <mxGeometry x="450" y="-550" width="60" height="30" as="geometry" />
        </mxCell>
        <mxCell id="9CAixmzG4GWBAlm5Qyrl-62" value="-" style="rounded=0;whiteSpace=wrap;html=1;" vertex="1" parent="1">
          <mxGeometry x="450" y="-520" width="60" height="30" as="geometry" />
        </mxCell>
        <mxCell id="9CAixmzG4GWBAlm5Qyrl-63" value="11" style="rounded=0;whiteSpace=wrap;html=1;fillColor=#f5f5f5;fontColor=#333333;strokeColor=#666666;" vertex="1" parent="1">
          <mxGeometry x="450" y="-570" width="60" height="20" as="geometry" />
        </mxCell>
        <mxCell id="9CAixmzG4GWBAlm5Qyrl-64" value="RFU" style="rounded=0;whiteSpace=wrap;html=1;" vertex="1" parent="1">
          <mxGeometry x="510" y="-550" width="60" height="30" as="geometry" />
        </mxCell>
        <mxCell id="9CAixmzG4GWBAlm5Qyrl-65" value="-" style="rounded=0;whiteSpace=wrap;html=1;" vertex="1" parent="1">
          <mxGeometry x="510" y="-520" width="60" height="30" as="geometry" />
        </mxCell>
        <mxCell id="9CAixmzG4GWBAlm5Qyrl-66" value="10" style="rounded=0;whiteSpace=wrap;html=1;fillColor=#f5f5f5;fontColor=#333333;strokeColor=#666666;" vertex="1" parent="1">
          <mxGeometry x="510" y="-570" width="60" height="20" as="geometry" />
        </mxCell>
        <mxCell id="9CAixmzG4GWBAlm5Qyrl-67" value="RFU" style="rounded=0;whiteSpace=wrap;html=1;" vertex="1" parent="1">
          <mxGeometry x="570" y="-550" width="60" height="30" as="geometry" />
        </mxCell>
        <mxCell id="9CAixmzG4GWBAlm5Qyrl-68" value="-" style="rounded=0;whiteSpace=wrap;html=1;" vertex="1" parent="1">
          <mxGeometry x="570" y="-520" width="60" height="30" as="geometry" />
        </mxCell>
        <mxCell id="9CAixmzG4GWBAlm5Qyrl-69" value="9" style="rounded=0;whiteSpace=wrap;html=1;fillColor=#f5f5f5;fontColor=#333333;strokeColor=#666666;" vertex="1" parent="1">
          <mxGeometry x="570" y="-570" width="60" height="20" as="geometry" />
        </mxCell>
        <mxCell id="9CAixmzG4GWBAlm5Qyrl-70" value="RFU" style="rounded=0;whiteSpace=wrap;html=1;" vertex="1" parent="1">
          <mxGeometry x="630" y="-550" width="60" height="30" as="geometry" />
        </mxCell>
        <mxCell id="9CAixmzG4GWBAlm5Qyrl-71" value="-" style="rounded=0;whiteSpace=wrap;html=1;" vertex="1" parent="1">
          <mxGeometry x="630" y="-520" width="60" height="30" as="geometry" />
        </mxCell>
        <mxCell id="9CAixmzG4GWBAlm5Qyrl-72" value="8" style="rounded=0;whiteSpace=wrap;html=1;fillColor=#f5f5f5;fontColor=#333333;strokeColor=#666666;" vertex="1" parent="1">
          <mxGeometry x="630" y="-570" width="60" height="20" as="geometry" />
        </mxCell>
        <mxCell id="9CAixmzG4GWBAlm5Qyrl-73" value="RFU" style="rounded=0;whiteSpace=wrap;html=1;" vertex="1" parent="1">
          <mxGeometry x="690" y="-550" width="60" height="30" as="geometry" />
        </mxCell>
        <mxCell id="9CAixmzG4GWBAlm5Qyrl-74" value="-" style="rounded=0;whiteSpace=wrap;html=1;" vertex="1" parent="1">
          <mxGeometry x="690" y="-520" width="60" height="30" as="geometry" />
        </mxCell>
        <mxCell id="9CAixmzG4GWBAlm5Qyrl-75" value="7" style="rounded=0;whiteSpace=wrap;html=1;fillColor=#f5f5f5;fontColor=#333333;strokeColor=#666666;" vertex="1" parent="1">
          <mxGeometry x="690" y="-570" width="60" height="20" as="geometry" />
        </mxCell>
        <mxCell id="9CAixmzG4GWBAlm5Qyrl-76" value="6" style="rounded=0;whiteSpace=wrap;html=1;fillColor=#f5f5f5;fontColor=#333333;strokeColor=#666666;" vertex="1" parent="1">
          <mxGeometry x="750" y="-570" width="60" height="20" as="geometry" />
        </mxCell>
        <mxCell id="9CAixmzG4GWBAlm5Qyrl-77" value="5" style="rounded=0;whiteSpace=wrap;html=1;fillColor=#f5f5f5;fontColor=#333333;strokeColor=#666666;" vertex="1" parent="1">
          <mxGeometry x="810" y="-570" width="60" height="20" as="geometry" />
        </mxCell>
        <mxCell id="9CAixmzG4GWBAlm5Qyrl-78" value="4" style="rounded=0;whiteSpace=wrap;html=1;fillColor=#f5f5f5;fontColor=#333333;strokeColor=#666666;" vertex="1" parent="1">
          <mxGeometry x="870" y="-570" width="60" height="20" as="geometry" />
        </mxCell>
        <mxCell id="9CAixmzG4GWBAlm5Qyrl-79" value="3" style="rounded=0;whiteSpace=wrap;html=1;fillColor=#f5f5f5;fontColor=#333333;strokeColor=#666666;" vertex="1" parent="1">
          <mxGeometry x="930" y="-570" width="60" height="20" as="geometry" />
        </mxCell>
        <mxCell id="9CAixmzG4GWBAlm5Qyrl-80" value="2" style="rounded=0;whiteSpace=wrap;html=1;fillColor=#f5f5f5;fontColor=#333333;strokeColor=#666666;" vertex="1" parent="1">
          <mxGeometry x="990" y="-570" width="60" height="20" as="geometry" />
        </mxCell>
        <mxCell id="9CAixmzG4GWBAlm5Qyrl-81" value="1" style="rounded=0;whiteSpace=wrap;html=1;fillColor=#f5f5f5;fontColor=#333333;strokeColor=#666666;" vertex="1" parent="1">
          <mxGeometry x="1050" y="-570" width="60" height="20" as="geometry" />
        </mxCell>
        <mxCell id="9CAixmzG4GWBAlm5Qyrl-82" value="&lt;b&gt;UARTEN&lt;/b&gt;" style="rounded=0;whiteSpace=wrap;html=1;" vertex="1" parent="1">
          <mxGeometry x="1110" y="-550" width="60" height="30" as="geometry" />
        </mxCell>
        <mxCell id="9CAixmzG4GWBAlm5Qyrl-83" value="&lt;b&gt;RW&lt;/b&gt;" style="rounded=0;whiteSpace=wrap;html=1;" vertex="1" parent="1">
          <mxGeometry x="1110" y="-520" width="60" height="30" as="geometry" />
        </mxCell>
        <mxCell id="9CAixmzG4GWBAlm5Qyrl-84" value="0" style="rounded=0;whiteSpace=wrap;html=1;fillColor=#f5f5f5;fontColor=#333333;strokeColor=#666666;" vertex="1" parent="1">
          <mxGeometry x="1110" y="-570" width="60" height="20" as="geometry" />
        </mxCell>
        <mxCell id="9CAixmzG4GWBAlm5Qyrl-85" value="&lt;b&gt;UART_CR : 0x00&lt;/b&gt;" style="text;html=1;align=left;verticalAlign=middle;resizable=0;points=[];autosize=1;strokeColor=none;fillColor=none;" vertex="1" parent="1">
          <mxGeometry x="210" y="-700" width="120" height="30" as="geometry" />
        </mxCell>
        <mxCell id="9CAixmzG4GWBAlm5Qyrl-86" value="&lt;b&gt;Bit 0 : UARTEN&amp;nbsp;&lt;/b&gt;&lt;br&gt;&lt;span style=&quot;font-weight: bold; white-space: pre;&quot;&gt;&#x9;&lt;/span&gt;0 -&amp;gt; UART is disabled&lt;br&gt;&lt;div&gt;&lt;span style=&quot;white-space: pre;&quot;&gt;&#x9;&lt;/span&gt;1 -&amp;gt; UART is enabled&lt;/div&gt;&lt;div&gt;&lt;br&gt;&lt;/div&gt;&lt;div&gt;&lt;b&gt;Bit 1 : RXEN &lt;/b&gt;&lt;/div&gt;&lt;span style=&quot;white-space: pre;&quot;&gt;&#x9;&lt;/span&gt;&lt;span style=&quot;font-weight: bold; white-space: pre;&quot;&gt;&lt;/span&gt;0 -&amp;gt; Receiver is disabled&lt;div&gt;&lt;span style=&quot;white-space: pre;&quot;&gt;&#x9;&lt;/span&gt;1 -&amp;gt; Receiver is enabled&lt;/div&gt;&lt;div&gt;&lt;br&gt;&lt;/div&gt;&lt;div&gt;&lt;b&gt;Bit 2 : TXEN &lt;/b&gt;&lt;br&gt;&lt;span style=&quot;white-space: pre;&quot;&gt;&#x9;&lt;/span&gt;&lt;span style=&quot;font-weight: bold; white-space: pre;&quot;&gt;&lt;/span&gt;0 -&amp;gt; Transmitter is disabled&lt;br&gt;&lt;div&gt;&lt;span style=&quot;white-space: pre;&quot;&gt;&#x9;&lt;/span&gt;1 -&amp;gt; Transmitter is enabled&lt;/div&gt;&lt;/div&gt;" style="text;html=1;align=left;verticalAlign=middle;resizable=0;points=[];autosize=1;strokeColor=none;fillColor=none;rotation=0;" vertex="1" parent="1">
          <mxGeometry x="210" y="-480" width="190" height="170" as="geometry" />
        </mxCell>
        <mxCell id="9CAixmzG4GWBAlm5Qyrl-87" value="&lt;b&gt;RW&lt;/b&gt;" style="rounded=0;whiteSpace=wrap;html=1;" vertex="1" parent="1">
          <mxGeometry x="1050" y="-520" width="60" height="30" as="geometry" />
        </mxCell>
        <mxCell id="9CAixmzG4GWBAlm5Qyrl-88" value="RXEN" style="rounded=0;whiteSpace=wrap;html=1;fontStyle=1" vertex="1" parent="1">
          <mxGeometry x="1050" y="-550" width="60" height="30" as="geometry" />
        </mxCell>
        <mxCell id="9CAixmzG4GWBAlm5Qyrl-89" value="&lt;b&gt;TXEN&lt;/b&gt;" style="rounded=0;whiteSpace=wrap;html=1;" vertex="1" parent="1">
          <mxGeometry x="990" y="-550" width="60" height="30" as="geometry" />
        </mxCell>
        <mxCell id="9CAixmzG4GWBAlm5Qyrl-90" value="&lt;b&gt;RW&lt;/b&gt;" style="rounded=0;whiteSpace=wrap;html=1;" vertex="1" parent="1">
          <mxGeometry x="990" y="-520" width="60" height="30" as="geometry" />
        </mxCell>
        <mxCell id="9CAixmzG4GWBAlm5Qyrl-91" value="&lt;b&gt;TXDONE&lt;/b&gt;" style="rounded=0;whiteSpace=wrap;html=1;" vertex="1" parent="1">
          <mxGeometry x="930" y="-550" width="60" height="30" as="geometry" />
        </mxCell>
        <mxCell id="9CAixmzG4GWBAlm5Qyrl-92" value="&lt;b&gt;RXDONE&lt;/b&gt;" style="rounded=0;whiteSpace=wrap;html=1;" vertex="1" parent="1">
          <mxGeometry x="870" y="-550" width="60" height="30" as="geometry" />
        </mxCell>
        <mxCell id="9CAixmzG4GWBAlm5Qyrl-93" value="&lt;b&gt;R&lt;/b&gt;" style="rounded=0;whiteSpace=wrap;html=1;" vertex="1" parent="1">
          <mxGeometry x="930" y="-520" width="60" height="30" as="geometry" />
        </mxCell>
        <mxCell id="9CAixmzG4GWBAlm5Qyrl-94" value="&lt;b&gt;R&lt;/b&gt;" style="rounded=0;whiteSpace=wrap;html=1;" vertex="1" parent="1">
          <mxGeometry x="870" y="-520" width="60" height="30" as="geometry" />
        </mxCell>
        <mxCell id="9CAixmzG4GWBAlm5Qyrl-95" value="RFU" style="rounded=0;whiteSpace=wrap;html=1;" vertex="1" parent="1">
          <mxGeometry x="750" y="-550" width="60" height="30" as="geometry" />
        </mxCell>
        <mxCell id="9CAixmzG4GWBAlm5Qyrl-96" value="RFU" style="rounded=0;whiteSpace=wrap;html=1;" vertex="1" parent="1">
          <mxGeometry x="810" y="-550" width="60" height="30" as="geometry" />
        </mxCell>
        <mxCell id="9CAixmzG4GWBAlm5Qyrl-97" value="-" style="rounded=0;whiteSpace=wrap;html=1;" vertex="1" parent="1">
          <mxGeometry x="750" y="-520" width="60" height="30" as="geometry" />
        </mxCell>
        <mxCell id="9CAixmzG4GWBAlm5Qyrl-98" value="-" style="rounded=0;whiteSpace=wrap;html=1;" vertex="1" parent="1">
          <mxGeometry x="810" y="-520" width="60" height="30" as="geometry" />
        </mxCell>
        <mxCell id="9CAixmzG4GWBAlm5Qyrl-99" value="31" style="rounded=0;whiteSpace=wrap;html=1;fillColor=#f5f5f5;fontColor=#333333;strokeColor=#666666;" vertex="1" parent="1">
          <mxGeometry x="180" y="837" width="60" height="20" as="geometry" />
        </mxCell>
        <mxCell id="9CAixmzG4GWBAlm5Qyrl-100" value="30" style="rounded=0;whiteSpace=wrap;html=1;fillColor=#f5f5f5;fontColor=#333333;strokeColor=#666666;" vertex="1" parent="1">
          <mxGeometry x="240" y="837" width="60" height="20" as="geometry" />
        </mxCell>
        <mxCell id="9CAixmzG4GWBAlm5Qyrl-101" value="29" style="rounded=0;whiteSpace=wrap;html=1;fillColor=#f5f5f5;fontColor=#333333;strokeColor=#666666;" vertex="1" parent="1">
          <mxGeometry x="300" y="837" width="60" height="20" as="geometry" />
        </mxCell>
        <mxCell id="9CAixmzG4GWBAlm5Qyrl-102" value="28" style="rounded=0;whiteSpace=wrap;html=1;fillColor=#f5f5f5;fontColor=#333333;strokeColor=#666666;" vertex="1" parent="1">
          <mxGeometry x="360" y="837" width="60" height="20" as="geometry" />
        </mxCell>
        <mxCell id="9CAixmzG4GWBAlm5Qyrl-103" value="27" style="rounded=0;whiteSpace=wrap;html=1;fillColor=#f5f5f5;fontColor=#333333;strokeColor=#666666;" vertex="1" parent="1">
          <mxGeometry x="420" y="837" width="60" height="20" as="geometry" />
        </mxCell>
        <mxCell id="9CAixmzG4GWBAlm5Qyrl-104" value="26" style="rounded=0;whiteSpace=wrap;html=1;fillColor=#f5f5f5;fontColor=#333333;strokeColor=#666666;" vertex="1" parent="1">
          <mxGeometry x="480" y="837" width="60" height="20" as="geometry" />
        </mxCell>
        <mxCell id="9CAixmzG4GWBAlm5Qyrl-105" value="25" style="rounded=0;whiteSpace=wrap;html=1;fillColor=#f5f5f5;fontColor=#333333;strokeColor=#666666;" vertex="1" parent="1">
          <mxGeometry x="540" y="837" width="60" height="20" as="geometry" />
        </mxCell>
        <mxCell id="9CAixmzG4GWBAlm5Qyrl-106" value="24" style="rounded=0;whiteSpace=wrap;html=1;fillColor=#f5f5f5;fontColor=#333333;strokeColor=#666666;" vertex="1" parent="1">
          <mxGeometry x="600" y="837" width="60" height="20" as="geometry" />
        </mxCell>
        <mxCell id="9CAixmzG4GWBAlm5Qyrl-107" value="23" style="rounded=0;whiteSpace=wrap;html=1;fillColor=#f5f5f5;fontColor=#333333;strokeColor=#666666;" vertex="1" parent="1">
          <mxGeometry x="660" y="837" width="60" height="20" as="geometry" />
        </mxCell>
        <mxCell id="9CAixmzG4GWBAlm5Qyrl-108" value="22" style="rounded=0;whiteSpace=wrap;html=1;fillColor=#f5f5f5;fontColor=#333333;strokeColor=#666666;" vertex="1" parent="1">
          <mxGeometry x="720" y="837" width="60" height="20" as="geometry" />
        </mxCell>
        <mxCell id="9CAixmzG4GWBAlm5Qyrl-109" value="21" style="rounded=0;whiteSpace=wrap;html=1;fillColor=#f5f5f5;fontColor=#333333;strokeColor=#666666;" vertex="1" parent="1">
          <mxGeometry x="780" y="837" width="60" height="20" as="geometry" />
        </mxCell>
        <mxCell id="9CAixmzG4GWBAlm5Qyrl-110" value="20" style="rounded=0;whiteSpace=wrap;html=1;fillColor=#f5f5f5;fontColor=#333333;strokeColor=#666666;" vertex="1" parent="1">
          <mxGeometry x="840" y="837" width="60" height="20" as="geometry" />
        </mxCell>
        <mxCell id="9CAixmzG4GWBAlm5Qyrl-111" value="19" style="rounded=0;whiteSpace=wrap;html=1;fillColor=#f5f5f5;fontColor=#333333;strokeColor=#666666;" vertex="1" parent="1">
          <mxGeometry x="900" y="837" width="60" height="20" as="geometry" />
        </mxCell>
        <mxCell id="9CAixmzG4GWBAlm5Qyrl-112" value="18" style="rounded=0;whiteSpace=wrap;html=1;fillColor=#f5f5f5;fontColor=#333333;strokeColor=#666666;" vertex="1" parent="1">
          <mxGeometry x="960" y="837" width="60" height="20" as="geometry" />
        </mxCell>
        <mxCell id="9CAixmzG4GWBAlm5Qyrl-113" value="17" style="rounded=0;whiteSpace=wrap;html=1;fillColor=#f5f5f5;fontColor=#333333;strokeColor=#666666;" vertex="1" parent="1">
          <mxGeometry x="1020" y="837" width="60" height="20" as="geometry" />
        </mxCell>
        <mxCell id="9CAixmzG4GWBAlm5Qyrl-114" value="16" style="rounded=0;whiteSpace=wrap;html=1;fillColor=#f5f5f5;fontColor=#333333;strokeColor=#666666;" vertex="1" parent="1">
          <mxGeometry x="1080" y="837" width="60" height="20" as="geometry" />
        </mxCell>
        <mxCell id="9CAixmzG4GWBAlm5Qyrl-115" value="15" style="rounded=0;whiteSpace=wrap;html=1;fillColor=#f5f5f5;fontColor=#333333;strokeColor=#666666;" vertex="1" parent="1">
          <mxGeometry x="180" y="929" width="60" height="20" as="geometry" />
        </mxCell>
        <mxCell id="9CAixmzG4GWBAlm5Qyrl-116" value="14" style="rounded=0;whiteSpace=wrap;html=1;fillColor=#f5f5f5;fontColor=#333333;strokeColor=#666666;" vertex="1" parent="1">
          <mxGeometry x="240" y="929" width="60" height="20" as="geometry" />
        </mxCell>
        <mxCell id="9CAixmzG4GWBAlm5Qyrl-117" value="13" style="rounded=0;whiteSpace=wrap;html=1;fillColor=#f5f5f5;fontColor=#333333;strokeColor=#666666;" vertex="1" parent="1">
          <mxGeometry x="300" y="929" width="60" height="20" as="geometry" />
        </mxCell>
        <mxCell id="9CAixmzG4GWBAlm5Qyrl-118" value="12" style="rounded=0;whiteSpace=wrap;html=1;fillColor=#f5f5f5;fontColor=#333333;strokeColor=#666666;" vertex="1" parent="1">
          <mxGeometry x="360" y="929" width="60" height="20" as="geometry" />
        </mxCell>
        <mxCell id="9CAixmzG4GWBAlm5Qyrl-119" value="11" style="rounded=0;whiteSpace=wrap;html=1;fillColor=#f5f5f5;fontColor=#333333;strokeColor=#666666;" vertex="1" parent="1">
          <mxGeometry x="420" y="929" width="60" height="20" as="geometry" />
        </mxCell>
        <mxCell id="9CAixmzG4GWBAlm5Qyrl-120" value="10" style="rounded=0;whiteSpace=wrap;html=1;fillColor=#f5f5f5;fontColor=#333333;strokeColor=#666666;" vertex="1" parent="1">
          <mxGeometry x="480" y="929" width="60" height="20" as="geometry" />
        </mxCell>
        <mxCell id="9CAixmzG4GWBAlm5Qyrl-121" value="9" style="rounded=0;whiteSpace=wrap;html=1;fillColor=#f5f5f5;fontColor=#333333;strokeColor=#666666;" vertex="1" parent="1">
          <mxGeometry x="540" y="929" width="60" height="20" as="geometry" />
        </mxCell>
        <mxCell id="9CAixmzG4GWBAlm5Qyrl-122" value="8" style="rounded=0;whiteSpace=wrap;html=1;fillColor=#f5f5f5;fontColor=#333333;strokeColor=#666666;" vertex="1" parent="1">
          <mxGeometry x="600" y="929" width="60" height="20" as="geometry" />
        </mxCell>
        <mxCell id="660FmVe_dEYkMPwgPv3W-1" value="" style="edgeStyle=orthogonalEdgeStyle;rounded=0;orthogonalLoop=1;jettySize=auto;html=1;" edge="1" parent="1" source="9CAixmzG4GWBAlm5Qyrl-123" target="9CAixmzG4GWBAlm5Qyrl-132">
          <mxGeometry relative="1" as="geometry" />
        </mxCell>
        <mxCell id="9CAixmzG4GWBAlm5Qyrl-123" value="7" style="rounded=0;whiteSpace=wrap;html=1;fillColor=#f5f5f5;fontColor=#333333;strokeColor=#666666;" vertex="1" parent="1">
          <mxGeometry x="660" y="929" width="60" height="20" as="geometry" />
        </mxCell>
        <mxCell id="9CAixmzG4GWBAlm5Qyrl-124" value="6" style="rounded=0;whiteSpace=wrap;html=1;fillColor=#f5f5f5;fontColor=#333333;strokeColor=#666666;" vertex="1" parent="1">
          <mxGeometry x="720" y="929" width="60" height="20" as="geometry" />
        </mxCell>
        <mxCell id="9CAixmzG4GWBAlm5Qyrl-125" value="5" style="rounded=0;whiteSpace=wrap;html=1;fillColor=#f5f5f5;fontColor=#333333;strokeColor=#666666;" vertex="1" parent="1">
          <mxGeometry x="780" y="929" width="60" height="20" as="geometry" />
        </mxCell>
        <mxCell id="9CAixmzG4GWBAlm5Qyrl-126" value="4" style="rounded=0;whiteSpace=wrap;html=1;fillColor=#f5f5f5;fontColor=#333333;strokeColor=#666666;" vertex="1" parent="1">
          <mxGeometry x="840" y="929" width="60" height="20" as="geometry" />
        </mxCell>
        <mxCell id="9CAixmzG4GWBAlm5Qyrl-127" value="3" style="rounded=0;whiteSpace=wrap;html=1;fillColor=#f5f5f5;fontColor=#333333;strokeColor=#666666;" vertex="1" parent="1">
          <mxGeometry x="900" y="929" width="60" height="20" as="geometry" />
        </mxCell>
        <mxCell id="9CAixmzG4GWBAlm5Qyrl-128" value="2" style="rounded=0;whiteSpace=wrap;html=1;fillColor=#f5f5f5;fontColor=#333333;strokeColor=#666666;" vertex="1" parent="1">
          <mxGeometry x="960" y="929" width="60" height="20" as="geometry" />
        </mxCell>
        <mxCell id="9CAixmzG4GWBAlm5Qyrl-129" value="1" style="rounded=0;whiteSpace=wrap;html=1;fillColor=#f5f5f5;fontColor=#333333;strokeColor=#666666;" vertex="1" parent="1">
          <mxGeometry x="1020" y="929" width="60" height="20" as="geometry" />
        </mxCell>
        <mxCell id="9CAixmzG4GWBAlm5Qyrl-130" value="0" style="rounded=0;whiteSpace=wrap;html=1;fillColor=#f5f5f5;fontColor=#333333;strokeColor=#666666;" vertex="1" parent="1">
          <mxGeometry x="1080" y="929" width="60" height="20" as="geometry" />
        </mxCell>
        <mxCell id="9CAixmzG4GWBAlm5Qyrl-131" value="&lt;b&gt;BRR&lt;/b&gt;" style="rounded=0;whiteSpace=wrap;html=1;" vertex="1" parent="1">
          <mxGeometry x="180" y="949" width="960" height="30" as="geometry" />
        </mxCell>
        <mxCell id="9CAixmzG4GWBAlm5Qyrl-132" value="&lt;b&gt;RW&lt;/b&gt;" style="rounded=0;whiteSpace=wrap;html=1;" vertex="1" parent="1">
          <mxGeometry x="180" y="979" width="960" height="30" as="geometry" />
        </mxCell>
        <mxCell id="9CAixmzG4GWBAlm5Qyrl-133" value="&lt;b&gt;Bit 0-31 :&lt;/b&gt; &lt;b&gt;BRR&lt;/b&gt;&lt;br&gt;&lt;span style=&quot;font-weight: bold; white-space: pre;&quot;&gt;&#x9;&lt;/span&gt;Baudrate Value" style="text;html=1;align=left;verticalAlign=middle;resizable=0;points=[];autosize=1;strokeColor=none;fillColor=none;" vertex="1" parent="1">
          <mxGeometry x="180" y="1008" width="130" height="40" as="geometry" />
        </mxCell>
        <mxCell id="9CAixmzG4GWBAlm5Qyrl-134" value=" UART_BRR : 0x01" style="text;whiteSpace=wrap;fontStyle=1" vertex="1" parent="1">
          <mxGeometry x="180" y="800" width="125" height="40" as="geometry" />
        </mxCell>
        <mxCell id="9CAixmzG4GWBAlm5Qyrl-135" value="&lt;b&gt;RW&lt;/b&gt;" style="rounded=0;whiteSpace=wrap;html=1;" vertex="1" parent="1">
          <mxGeometry x="180" y="887" width="960" height="30" as="geometry" />
        </mxCell>
        <mxCell id="9CAixmzG4GWBAlm5Qyrl-136" value="&lt;b&gt;BRR&lt;/b&gt;" style="rounded=0;whiteSpace=wrap;html=1;" vertex="1" parent="1">
          <mxGeometry x="180" y="857" width="960" height="30" as="geometry" />
        </mxCell>
        <mxCell id="660FmVe_dEYkMPwgPv3W-2" value="&lt;div&gt;&lt;br&gt;&lt;/div&gt;&lt;div&gt;&lt;div style=&quot;text-align: left; text-wrap: nowrap;&quot;&gt;&lt;b&gt;Bit 3 :&amp;nbsp;TXDONE&lt;/b&gt;&lt;br&gt;&lt;span style=&quot;white-space-collapse: preserve;&quot;&gt;&amp;nbsp;&amp;nbsp;&amp;nbsp;&amp;nbsp;&lt;/span&gt;&lt;span style=&quot;font-weight: bold; white-space-collapse: preserve;&quot;&gt;&lt;/span&gt;0 -&amp;gt; UART Transmission idle&lt;br&gt;&lt;div&gt;&lt;span style=&quot;white-space-collapse: preserve;&quot;&gt;&amp;nbsp;&amp;nbsp;&amp;nbsp;&amp;nbsp;&lt;/span&gt;1 -&amp;gt; UART Transmission was completed. This flag is cleared by hardware upon a successful transmission&lt;br&gt;&lt;/div&gt;&lt;div&gt;&lt;br&gt;&lt;/div&gt;&lt;div&gt;&lt;b&gt;Bit 4 :&amp;nbsp;RXDONE&lt;/b&gt;&lt;br&gt;&lt;span style=&quot;white-space-collapse: preserve;&quot;&gt;&amp;nbsp;&amp;nbsp;&amp;nbsp;&amp;nbsp;&lt;/span&gt;&lt;span style=&quot;font-weight: bold; white-space-collapse: preserve;&quot;&gt;&lt;/span&gt;0 -&amp;gt; Disables the UART Peripheral&lt;br&gt;&lt;div&gt;&lt;span style=&quot;white-space-collapse: preserve;&quot;&gt;&amp;nbsp;&amp;nbsp;&amp;nbsp;&amp;nbsp;&lt;/span&gt;1 -&amp;gt; Enable the UART Peripheral&lt;/div&gt;&lt;div&gt;&lt;br&gt;&lt;/div&gt;&lt;/div&gt;&lt;/div&gt;&lt;div style=&quot;text-align: left; text-wrap: nowrap;&quot;&gt;&lt;br&gt;All other values are&amp;nbsp;&lt;b&gt;RFU&lt;/b&gt;&lt;/div&gt;&lt;/div&gt;" style="text;html=1;align=center;verticalAlign=middle;whiteSpace=wrap;rounded=0;" vertex="1" parent="1">
          <mxGeometry x="330" y="-505" width="780" height="192" as="geometry" />
        </mxCell>
      </root>
    </mxGraphModel>
  </diagram>
</mxfile>
